M48
; DRILL file {KiCad (5.1.6-0-10_14)} date Friday, July 24, 2020 at 07:17:48 PM
; FORMAT={-:-/ absolute / metric / decimal}
; #@! TF.CreationDate,2020-07-24T19:17:48+09:00
; #@! TF.GenerationSoftware,Kicad,Pcbnew,(5.1.6-0-10_14)
; #@! TF.FileFunction,Plated,1,2,PTH
FMAT,2
METRIC
T1C0.400
T2C2.200
%
G90
G05
T1
X193.35Y-170.0
X193.833Y-168.833
X193.833Y-171.167
X195.0Y-168.35
X195.0Y-171.65
X196.167Y-168.833
X196.167Y-171.167
X196.65Y-170.0
X193.35Y-190.0
X193.833Y-188.833
X193.833Y-191.167
X195.0Y-188.35
X195.0Y-191.65
X196.167Y-188.833
X196.167Y-191.167
X196.65Y-190.0
X193.35Y-150.0
X193.833Y-148.833
X193.833Y-151.167
X195.0Y-148.35
X195.0Y-151.65
X196.167Y-148.833
X196.167Y-151.167
X196.65Y-150.0
X193.35Y-110.0
X193.833Y-108.833
X193.833Y-111.167
X195.0Y-108.35
X195.0Y-111.65
X196.167Y-108.833
X196.167Y-111.167
X196.65Y-110.0
X193.35Y-130.0
X193.833Y-128.833
X193.833Y-131.167
X195.0Y-128.35
X195.0Y-131.65
X196.167Y-128.833
X196.167Y-131.167
X196.65Y-130.0
T2
X195.0Y-130.0
X195.0Y-170.0
X195.0Y-190.0
X195.0Y-150.0
X195.0Y-110.0
T0
M30
