%TF.GenerationSoftware,KiCad,Pcbnew,(5.1.6-0-10_14)*%
%TF.CreationDate,2020-07-24T19:17:44+09:00*%
%TF.ProjectId,pcb_ruler,7063625f-7275-46c6-9572-2e6b69636164,rev?*%
%TF.SameCoordinates,Original*%
%TF.FileFunction,Profile,NP*%
%FSLAX46Y46*%
G04 Gerber Fmt 4.6, Leading zero omitted, Abs format (unit mm)*
G04 Created by KiCad (PCBNEW (5.1.6-0-10_14)) date 2020-07-24 19:17:44*
%MOMM*%
%LPD*%
G01*
G04 APERTURE LIST*
%TA.AperFunction,Profile*%
%ADD10C,0.050000*%
%TD*%
G04 APERTURE END LIST*
D10*
X200000000Y-200000000D02*
X100000000Y-200000000D01*
X200000000Y-180000000D02*
X200000000Y-200000000D01*
X100000000Y-200000000D02*
X100000000Y-180000000D01*
X103100000Y-199000000D02*
G75*
G03*
X103100000Y-199000000I-100000J0D01*
G01*
X105150000Y-199000000D02*
G75*
G03*
X105150000Y-199000000I-150000J0D01*
G01*
X107200000Y-199000000D02*
G75*
G03*
X107200000Y-199000000I-200000J0D01*
G01*
X109250000Y-199000000D02*
G75*
G03*
X109250000Y-199000000I-250000J0D01*
G01*
X111300000Y-199000000D02*
G75*
G03*
X111300000Y-199000000I-300000J0D01*
G01*
X113350000Y-199000000D02*
G75*
G03*
X113350000Y-199000000I-350000J0D01*
G01*
X115300000Y-199000000D02*
G75*
G03*
X115300000Y-199000000I-400000J0D01*
G01*
X117450000Y-199000000D02*
G75*
G03*
X117450000Y-199000000I-450000J0D01*
G01*
X119500000Y-199000000D02*
G75*
G03*
X119500000Y-199000000I-500000J0D01*
G01*
X200000000Y-160000000D02*
X200000000Y-180000000D01*
X100000000Y-180000000D02*
X100000000Y-160000000D01*
X103100000Y-179000000D02*
G75*
G03*
X103100000Y-179000000I-100000J0D01*
G01*
X105150000Y-179000000D02*
G75*
G03*
X105150000Y-179000000I-150000J0D01*
G01*
X107200000Y-179000000D02*
G75*
G03*
X107200000Y-179000000I-200000J0D01*
G01*
X109250000Y-179000000D02*
G75*
G03*
X109250000Y-179000000I-250000J0D01*
G01*
X111300000Y-179000000D02*
G75*
G03*
X111300000Y-179000000I-300000J0D01*
G01*
X113350000Y-179000000D02*
G75*
G03*
X113350000Y-179000000I-350000J0D01*
G01*
X115300000Y-179000000D02*
G75*
G03*
X115300000Y-179000000I-400000J0D01*
G01*
X117450000Y-179000000D02*
G75*
G03*
X117450000Y-179000000I-450000J0D01*
G01*
X119500000Y-179000000D02*
G75*
G03*
X119500000Y-179000000I-500000J0D01*
G01*
X200000000Y-140000000D02*
X200000000Y-160000000D01*
X100000000Y-160000000D02*
X100000000Y-140000000D01*
X103100000Y-159000000D02*
G75*
G03*
X103100000Y-159000000I-100000J0D01*
G01*
X105150000Y-159000000D02*
G75*
G03*
X105150000Y-159000000I-150000J0D01*
G01*
X107200000Y-159000000D02*
G75*
G03*
X107200000Y-159000000I-200000J0D01*
G01*
X109250000Y-159000000D02*
G75*
G03*
X109250000Y-159000000I-250000J0D01*
G01*
X111300000Y-159000000D02*
G75*
G03*
X111300000Y-159000000I-300000J0D01*
G01*
X113350000Y-159000000D02*
G75*
G03*
X113350000Y-159000000I-350000J0D01*
G01*
X115300000Y-159000000D02*
G75*
G03*
X115300000Y-159000000I-400000J0D01*
G01*
X117450000Y-159000000D02*
G75*
G03*
X117450000Y-159000000I-450000J0D01*
G01*
X119500000Y-159000000D02*
G75*
G03*
X119500000Y-159000000I-500000J0D01*
G01*
X200000000Y-120000000D02*
X200000000Y-140000000D01*
X100000000Y-140000000D02*
X100000000Y-120000000D01*
X103100000Y-139000000D02*
G75*
G03*
X103100000Y-139000000I-100000J0D01*
G01*
X105150000Y-139000000D02*
G75*
G03*
X105150000Y-139000000I-150000J0D01*
G01*
X107200000Y-139000000D02*
G75*
G03*
X107200000Y-139000000I-200000J0D01*
G01*
X109250000Y-139000000D02*
G75*
G03*
X109250000Y-139000000I-250000J0D01*
G01*
X111300000Y-139000000D02*
G75*
G03*
X111300000Y-139000000I-300000J0D01*
G01*
X113350000Y-139000000D02*
G75*
G03*
X113350000Y-139000000I-350000J0D01*
G01*
X115300000Y-139000000D02*
G75*
G03*
X115300000Y-139000000I-400000J0D01*
G01*
X117450000Y-139000000D02*
G75*
G03*
X117450000Y-139000000I-450000J0D01*
G01*
X119500000Y-139000000D02*
G75*
G03*
X119500000Y-139000000I-500000J0D01*
G01*
X103100000Y-119000000D02*
G75*
G03*
X103100000Y-119000000I-100000J0D01*
G01*
X105150000Y-119000000D02*
G75*
G03*
X105150000Y-119000000I-150000J0D01*
G01*
X107200000Y-119000000D02*
G75*
G03*
X107200000Y-119000000I-200000J0D01*
G01*
X109250000Y-119000000D02*
G75*
G03*
X109250000Y-119000000I-250000J0D01*
G01*
X119500000Y-119000000D02*
G75*
G03*
X119500000Y-119000000I-500000J0D01*
G01*
X117450000Y-119000000D02*
G75*
G03*
X117450000Y-119000000I-450000J0D01*
G01*
X115300000Y-119000000D02*
G75*
G03*
X115300000Y-119000000I-400000J0D01*
G01*
X113350000Y-119000000D02*
G75*
G03*
X113350000Y-119000000I-350000J0D01*
G01*
X111300000Y-119000000D02*
G75*
G03*
X111300000Y-119000000I-300000J0D01*
G01*
X100000000Y-120000000D02*
X100000000Y-100000000D01*
X200000000Y-100000000D02*
X200000000Y-120000000D01*
X100000000Y-100000000D02*
X200000000Y-100000000D01*
M02*
