%TF.GenerationSoftware,KiCad,Pcbnew,(5.1.6-0-10_14)*%
%TF.CreationDate,2020-07-24T19:17:44+09:00*%
%TF.ProjectId,pcb_ruler,7063625f-7275-46c6-9572-2e6b69636164,rev?*%
%TF.SameCoordinates,Original*%
%TF.FileFunction,Paste,Top*%
%TF.FilePolarity,Positive*%
%FSLAX46Y46*%
G04 Gerber Fmt 4.6, Leading zero omitted, Abs format (unit mm)*
G04 Created by KiCad (PCBNEW (5.1.6-0-10_14)) date 2020-07-24 19:17:44*
%MOMM*%
%LPD*%
G01*
G04 APERTURE LIST*
G04 APERTURE END LIST*
%TO.C,1005(0402)*%
G36*
G01*
X148190000Y-195172500D02*
X148190000Y-194827500D01*
G75*
G02*
X148337500Y-194680000I147500J0D01*
G01*
X148632500Y-194680000D01*
G75*
G02*
X148780000Y-194827500I0J-147500D01*
G01*
X148780000Y-195172500D01*
G75*
G02*
X148632500Y-195320000I-147500J0D01*
G01*
X148337500Y-195320000D01*
G75*
G02*
X148190000Y-195172500I0J147500D01*
G01*
G37*
G36*
G01*
X147220000Y-195172500D02*
X147220000Y-194827500D01*
G75*
G02*
X147367500Y-194680000I147500J0D01*
G01*
X147662500Y-194680000D01*
G75*
G02*
X147810000Y-194827500I0J-147500D01*
G01*
X147810000Y-195172500D01*
G75*
G02*
X147662500Y-195320000I-147500J0D01*
G01*
X147367500Y-195320000D01*
G75*
G02*
X147220000Y-195172500I0J147500D01*
G01*
G37*
%TD*%
%TO.C,0603(0201)*%
G36*
G01*
X147496000Y-193100500D02*
X147496000Y-192899500D01*
G75*
G02*
X147575500Y-192820000I79500J0D01*
G01*
X147734500Y-192820000D01*
G75*
G02*
X147814000Y-192899500I0J-79500D01*
G01*
X147814000Y-193100500D01*
G75*
G02*
X147734500Y-193180000I-79500J0D01*
G01*
X147575500Y-193180000D01*
G75*
G02*
X147496000Y-193100500I0J79500D01*
G01*
G37*
G36*
G01*
X148186000Y-193100500D02*
X148186000Y-192899500D01*
G75*
G02*
X148265500Y-192820000I79500J0D01*
G01*
X148424500Y-192820000D01*
G75*
G02*
X148504000Y-192899500I0J-79500D01*
G01*
X148504000Y-193100500D01*
G75*
G02*
X148424500Y-193180000I-79500J0D01*
G01*
X148265500Y-193180000D01*
G75*
G02*
X148186000Y-193100500I0J79500D01*
G01*
G37*
%TD*%
%TO.C,0402(01005)*%
G36*
G01*
X148140000Y-191067500D02*
X148140000Y-190932500D01*
G75*
G02*
X148207500Y-190865000I67500J0D01*
G01*
X148342500Y-190865000D01*
G75*
G02*
X148410000Y-190932500I0J-67500D01*
G01*
X148410000Y-191067500D01*
G75*
G02*
X148342500Y-191135000I-67500J0D01*
G01*
X148207500Y-191135000D01*
G75*
G02*
X148140000Y-191067500I0J67500D01*
G01*
G37*
G36*
G01*
X147590000Y-191067500D02*
X147590000Y-190932500D01*
G75*
G02*
X147657500Y-190865000I67500J0D01*
G01*
X147792500Y-190865000D01*
G75*
G02*
X147860000Y-190932500I0J-67500D01*
G01*
X147860000Y-191067500D01*
G75*
G02*
X147792500Y-191135000I-67500J0D01*
G01*
X147657500Y-191135000D01*
G75*
G02*
X147590000Y-191067500I0J67500D01*
G01*
G37*
%TD*%
%TO.C,1608(0603)*%
G36*
G01*
X148350000Y-197256250D02*
X148350000Y-196743750D01*
G75*
G02*
X148568750Y-196525000I218750J0D01*
G01*
X149006250Y-196525000D01*
G75*
G02*
X149225000Y-196743750I0J-218750D01*
G01*
X149225000Y-197256250D01*
G75*
G02*
X149006250Y-197475000I-218750J0D01*
G01*
X148568750Y-197475000D01*
G75*
G02*
X148350000Y-197256250I0J218750D01*
G01*
G37*
G36*
G01*
X146775000Y-197256250D02*
X146775000Y-196743750D01*
G75*
G02*
X146993750Y-196525000I218750J0D01*
G01*
X147431250Y-196525000D01*
G75*
G02*
X147650000Y-196743750I0J-218750D01*
G01*
X147650000Y-197256250D01*
G75*
G02*
X147431250Y-197475000I-218750J0D01*
G01*
X146993750Y-197475000D01*
G75*
G02*
X146775000Y-197256250I0J218750D01*
G01*
G37*
%TD*%
%TO.C,2012(0805)*%
G36*
G01*
X160450000Y-191456250D02*
X160450000Y-190543750D01*
G75*
G02*
X160693750Y-190300000I243750J0D01*
G01*
X161181250Y-190300000D01*
G75*
G02*
X161425000Y-190543750I0J-243750D01*
G01*
X161425000Y-191456250D01*
G75*
G02*
X161181250Y-191700000I-243750J0D01*
G01*
X160693750Y-191700000D01*
G75*
G02*
X160450000Y-191456250I0J243750D01*
G01*
G37*
G36*
G01*
X158575000Y-191456250D02*
X158575000Y-190543750D01*
G75*
G02*
X158818750Y-190300000I243750J0D01*
G01*
X159306250Y-190300000D01*
G75*
G02*
X159550000Y-190543750I0J-243750D01*
G01*
X159550000Y-191456250D01*
G75*
G02*
X159306250Y-191700000I-243750J0D01*
G01*
X158818750Y-191700000D01*
G75*
G02*
X158575000Y-191456250I0J243750D01*
G01*
G37*
%TD*%
%TO.C,3216(1206)*%
G36*
G01*
X157975000Y-194375000D02*
X157975000Y-193125000D01*
G75*
G02*
X158225000Y-192875000I250000J0D01*
G01*
X158975000Y-192875000D01*
G75*
G02*
X159225000Y-193125000I0J-250000D01*
G01*
X159225000Y-194375000D01*
G75*
G02*
X158975000Y-194625000I-250000J0D01*
G01*
X158225000Y-194625000D01*
G75*
G02*
X157975000Y-194375000I0J250000D01*
G01*
G37*
G36*
G01*
X160775000Y-194375000D02*
X160775000Y-193125000D01*
G75*
G02*
X161025000Y-192875000I250000J0D01*
G01*
X161775000Y-192875000D01*
G75*
G02*
X162025000Y-193125000I0J-250000D01*
G01*
X162025000Y-194375000D01*
G75*
G02*
X161775000Y-194625000I-250000J0D01*
G01*
X161025000Y-194625000D01*
G75*
G02*
X160775000Y-194375000I0J250000D01*
G01*
G37*
%TD*%
%TO.C,3225(1210)*%
G36*
G01*
X157975000Y-198075000D02*
X157975000Y-195925000D01*
G75*
G02*
X158225000Y-195675000I250000J0D01*
G01*
X158975000Y-195675000D01*
G75*
G02*
X159225000Y-195925000I0J-250000D01*
G01*
X159225000Y-198075000D01*
G75*
G02*
X158975000Y-198325000I-250000J0D01*
G01*
X158225000Y-198325000D01*
G75*
G02*
X157975000Y-198075000I0J250000D01*
G01*
G37*
G36*
G01*
X160775000Y-198075000D02*
X160775000Y-195925000D01*
G75*
G02*
X161025000Y-195675000I250000J0D01*
G01*
X161775000Y-195675000D01*
G75*
G02*
X162025000Y-195925000I0J-250000D01*
G01*
X162025000Y-198075000D01*
G75*
G02*
X161775000Y-198325000I-250000J0D01*
G01*
X161025000Y-198325000D01*
G75*
G02*
X160775000Y-198075000I0J250000D01*
G01*
G37*
%TD*%
%TO.C,1005(0402)*%
G36*
G01*
X148190000Y-175172500D02*
X148190000Y-174827500D01*
G75*
G02*
X148337500Y-174680000I147500J0D01*
G01*
X148632500Y-174680000D01*
G75*
G02*
X148780000Y-174827500I0J-147500D01*
G01*
X148780000Y-175172500D01*
G75*
G02*
X148632500Y-175320000I-147500J0D01*
G01*
X148337500Y-175320000D01*
G75*
G02*
X148190000Y-175172500I0J147500D01*
G01*
G37*
G36*
G01*
X147220000Y-175172500D02*
X147220000Y-174827500D01*
G75*
G02*
X147367500Y-174680000I147500J0D01*
G01*
X147662500Y-174680000D01*
G75*
G02*
X147810000Y-174827500I0J-147500D01*
G01*
X147810000Y-175172500D01*
G75*
G02*
X147662500Y-175320000I-147500J0D01*
G01*
X147367500Y-175320000D01*
G75*
G02*
X147220000Y-175172500I0J147500D01*
G01*
G37*
%TD*%
%TO.C,0603(0201)*%
G36*
G01*
X147496000Y-173100500D02*
X147496000Y-172899500D01*
G75*
G02*
X147575500Y-172820000I79500J0D01*
G01*
X147734500Y-172820000D01*
G75*
G02*
X147814000Y-172899500I0J-79500D01*
G01*
X147814000Y-173100500D01*
G75*
G02*
X147734500Y-173180000I-79500J0D01*
G01*
X147575500Y-173180000D01*
G75*
G02*
X147496000Y-173100500I0J79500D01*
G01*
G37*
G36*
G01*
X148186000Y-173100500D02*
X148186000Y-172899500D01*
G75*
G02*
X148265500Y-172820000I79500J0D01*
G01*
X148424500Y-172820000D01*
G75*
G02*
X148504000Y-172899500I0J-79500D01*
G01*
X148504000Y-173100500D01*
G75*
G02*
X148424500Y-173180000I-79500J0D01*
G01*
X148265500Y-173180000D01*
G75*
G02*
X148186000Y-173100500I0J79500D01*
G01*
G37*
%TD*%
%TO.C,0402(01005)*%
G36*
G01*
X148140000Y-171067500D02*
X148140000Y-170932500D01*
G75*
G02*
X148207500Y-170865000I67500J0D01*
G01*
X148342500Y-170865000D01*
G75*
G02*
X148410000Y-170932500I0J-67500D01*
G01*
X148410000Y-171067500D01*
G75*
G02*
X148342500Y-171135000I-67500J0D01*
G01*
X148207500Y-171135000D01*
G75*
G02*
X148140000Y-171067500I0J67500D01*
G01*
G37*
G36*
G01*
X147590000Y-171067500D02*
X147590000Y-170932500D01*
G75*
G02*
X147657500Y-170865000I67500J0D01*
G01*
X147792500Y-170865000D01*
G75*
G02*
X147860000Y-170932500I0J-67500D01*
G01*
X147860000Y-171067500D01*
G75*
G02*
X147792500Y-171135000I-67500J0D01*
G01*
X147657500Y-171135000D01*
G75*
G02*
X147590000Y-171067500I0J67500D01*
G01*
G37*
%TD*%
%TO.C,1608(0603)*%
G36*
G01*
X148350000Y-177256250D02*
X148350000Y-176743750D01*
G75*
G02*
X148568750Y-176525000I218750J0D01*
G01*
X149006250Y-176525000D01*
G75*
G02*
X149225000Y-176743750I0J-218750D01*
G01*
X149225000Y-177256250D01*
G75*
G02*
X149006250Y-177475000I-218750J0D01*
G01*
X148568750Y-177475000D01*
G75*
G02*
X148350000Y-177256250I0J218750D01*
G01*
G37*
G36*
G01*
X146775000Y-177256250D02*
X146775000Y-176743750D01*
G75*
G02*
X146993750Y-176525000I218750J0D01*
G01*
X147431250Y-176525000D01*
G75*
G02*
X147650000Y-176743750I0J-218750D01*
G01*
X147650000Y-177256250D01*
G75*
G02*
X147431250Y-177475000I-218750J0D01*
G01*
X146993750Y-177475000D01*
G75*
G02*
X146775000Y-177256250I0J218750D01*
G01*
G37*
%TD*%
%TO.C,2012(0805)*%
G36*
G01*
X160450000Y-171456250D02*
X160450000Y-170543750D01*
G75*
G02*
X160693750Y-170300000I243750J0D01*
G01*
X161181250Y-170300000D01*
G75*
G02*
X161425000Y-170543750I0J-243750D01*
G01*
X161425000Y-171456250D01*
G75*
G02*
X161181250Y-171700000I-243750J0D01*
G01*
X160693750Y-171700000D01*
G75*
G02*
X160450000Y-171456250I0J243750D01*
G01*
G37*
G36*
G01*
X158575000Y-171456250D02*
X158575000Y-170543750D01*
G75*
G02*
X158818750Y-170300000I243750J0D01*
G01*
X159306250Y-170300000D01*
G75*
G02*
X159550000Y-170543750I0J-243750D01*
G01*
X159550000Y-171456250D01*
G75*
G02*
X159306250Y-171700000I-243750J0D01*
G01*
X158818750Y-171700000D01*
G75*
G02*
X158575000Y-171456250I0J243750D01*
G01*
G37*
%TD*%
%TO.C,3216(1206)*%
G36*
G01*
X157975000Y-174375000D02*
X157975000Y-173125000D01*
G75*
G02*
X158225000Y-172875000I250000J0D01*
G01*
X158975000Y-172875000D01*
G75*
G02*
X159225000Y-173125000I0J-250000D01*
G01*
X159225000Y-174375000D01*
G75*
G02*
X158975000Y-174625000I-250000J0D01*
G01*
X158225000Y-174625000D01*
G75*
G02*
X157975000Y-174375000I0J250000D01*
G01*
G37*
G36*
G01*
X160775000Y-174375000D02*
X160775000Y-173125000D01*
G75*
G02*
X161025000Y-172875000I250000J0D01*
G01*
X161775000Y-172875000D01*
G75*
G02*
X162025000Y-173125000I0J-250000D01*
G01*
X162025000Y-174375000D01*
G75*
G02*
X161775000Y-174625000I-250000J0D01*
G01*
X161025000Y-174625000D01*
G75*
G02*
X160775000Y-174375000I0J250000D01*
G01*
G37*
%TD*%
%TO.C,3225(1210)*%
G36*
G01*
X157975000Y-178075000D02*
X157975000Y-175925000D01*
G75*
G02*
X158225000Y-175675000I250000J0D01*
G01*
X158975000Y-175675000D01*
G75*
G02*
X159225000Y-175925000I0J-250000D01*
G01*
X159225000Y-178075000D01*
G75*
G02*
X158975000Y-178325000I-250000J0D01*
G01*
X158225000Y-178325000D01*
G75*
G02*
X157975000Y-178075000I0J250000D01*
G01*
G37*
G36*
G01*
X160775000Y-178075000D02*
X160775000Y-175925000D01*
G75*
G02*
X161025000Y-175675000I250000J0D01*
G01*
X161775000Y-175675000D01*
G75*
G02*
X162025000Y-175925000I0J-250000D01*
G01*
X162025000Y-178075000D01*
G75*
G02*
X161775000Y-178325000I-250000J0D01*
G01*
X161025000Y-178325000D01*
G75*
G02*
X160775000Y-178075000I0J250000D01*
G01*
G37*
%TD*%
%TO.C,1005(0402)*%
G36*
G01*
X148190000Y-155172500D02*
X148190000Y-154827500D01*
G75*
G02*
X148337500Y-154680000I147500J0D01*
G01*
X148632500Y-154680000D01*
G75*
G02*
X148780000Y-154827500I0J-147500D01*
G01*
X148780000Y-155172500D01*
G75*
G02*
X148632500Y-155320000I-147500J0D01*
G01*
X148337500Y-155320000D01*
G75*
G02*
X148190000Y-155172500I0J147500D01*
G01*
G37*
G36*
G01*
X147220000Y-155172500D02*
X147220000Y-154827500D01*
G75*
G02*
X147367500Y-154680000I147500J0D01*
G01*
X147662500Y-154680000D01*
G75*
G02*
X147810000Y-154827500I0J-147500D01*
G01*
X147810000Y-155172500D01*
G75*
G02*
X147662500Y-155320000I-147500J0D01*
G01*
X147367500Y-155320000D01*
G75*
G02*
X147220000Y-155172500I0J147500D01*
G01*
G37*
%TD*%
%TO.C,0603(0201)*%
G36*
G01*
X147496000Y-153100500D02*
X147496000Y-152899500D01*
G75*
G02*
X147575500Y-152820000I79500J0D01*
G01*
X147734500Y-152820000D01*
G75*
G02*
X147814000Y-152899500I0J-79500D01*
G01*
X147814000Y-153100500D01*
G75*
G02*
X147734500Y-153180000I-79500J0D01*
G01*
X147575500Y-153180000D01*
G75*
G02*
X147496000Y-153100500I0J79500D01*
G01*
G37*
G36*
G01*
X148186000Y-153100500D02*
X148186000Y-152899500D01*
G75*
G02*
X148265500Y-152820000I79500J0D01*
G01*
X148424500Y-152820000D01*
G75*
G02*
X148504000Y-152899500I0J-79500D01*
G01*
X148504000Y-153100500D01*
G75*
G02*
X148424500Y-153180000I-79500J0D01*
G01*
X148265500Y-153180000D01*
G75*
G02*
X148186000Y-153100500I0J79500D01*
G01*
G37*
%TD*%
%TO.C,0402(01005)*%
G36*
G01*
X148140000Y-151067500D02*
X148140000Y-150932500D01*
G75*
G02*
X148207500Y-150865000I67500J0D01*
G01*
X148342500Y-150865000D01*
G75*
G02*
X148410000Y-150932500I0J-67500D01*
G01*
X148410000Y-151067500D01*
G75*
G02*
X148342500Y-151135000I-67500J0D01*
G01*
X148207500Y-151135000D01*
G75*
G02*
X148140000Y-151067500I0J67500D01*
G01*
G37*
G36*
G01*
X147590000Y-151067500D02*
X147590000Y-150932500D01*
G75*
G02*
X147657500Y-150865000I67500J0D01*
G01*
X147792500Y-150865000D01*
G75*
G02*
X147860000Y-150932500I0J-67500D01*
G01*
X147860000Y-151067500D01*
G75*
G02*
X147792500Y-151135000I-67500J0D01*
G01*
X147657500Y-151135000D01*
G75*
G02*
X147590000Y-151067500I0J67500D01*
G01*
G37*
%TD*%
%TO.C,1608(0603)*%
G36*
G01*
X148350000Y-157256250D02*
X148350000Y-156743750D01*
G75*
G02*
X148568750Y-156525000I218750J0D01*
G01*
X149006250Y-156525000D01*
G75*
G02*
X149225000Y-156743750I0J-218750D01*
G01*
X149225000Y-157256250D01*
G75*
G02*
X149006250Y-157475000I-218750J0D01*
G01*
X148568750Y-157475000D01*
G75*
G02*
X148350000Y-157256250I0J218750D01*
G01*
G37*
G36*
G01*
X146775000Y-157256250D02*
X146775000Y-156743750D01*
G75*
G02*
X146993750Y-156525000I218750J0D01*
G01*
X147431250Y-156525000D01*
G75*
G02*
X147650000Y-156743750I0J-218750D01*
G01*
X147650000Y-157256250D01*
G75*
G02*
X147431250Y-157475000I-218750J0D01*
G01*
X146993750Y-157475000D01*
G75*
G02*
X146775000Y-157256250I0J218750D01*
G01*
G37*
%TD*%
%TO.C,2012(0805)*%
G36*
G01*
X160450000Y-151456250D02*
X160450000Y-150543750D01*
G75*
G02*
X160693750Y-150300000I243750J0D01*
G01*
X161181250Y-150300000D01*
G75*
G02*
X161425000Y-150543750I0J-243750D01*
G01*
X161425000Y-151456250D01*
G75*
G02*
X161181250Y-151700000I-243750J0D01*
G01*
X160693750Y-151700000D01*
G75*
G02*
X160450000Y-151456250I0J243750D01*
G01*
G37*
G36*
G01*
X158575000Y-151456250D02*
X158575000Y-150543750D01*
G75*
G02*
X158818750Y-150300000I243750J0D01*
G01*
X159306250Y-150300000D01*
G75*
G02*
X159550000Y-150543750I0J-243750D01*
G01*
X159550000Y-151456250D01*
G75*
G02*
X159306250Y-151700000I-243750J0D01*
G01*
X158818750Y-151700000D01*
G75*
G02*
X158575000Y-151456250I0J243750D01*
G01*
G37*
%TD*%
%TO.C,3216(1206)*%
G36*
G01*
X157975000Y-154375000D02*
X157975000Y-153125000D01*
G75*
G02*
X158225000Y-152875000I250000J0D01*
G01*
X158975000Y-152875000D01*
G75*
G02*
X159225000Y-153125000I0J-250000D01*
G01*
X159225000Y-154375000D01*
G75*
G02*
X158975000Y-154625000I-250000J0D01*
G01*
X158225000Y-154625000D01*
G75*
G02*
X157975000Y-154375000I0J250000D01*
G01*
G37*
G36*
G01*
X160775000Y-154375000D02*
X160775000Y-153125000D01*
G75*
G02*
X161025000Y-152875000I250000J0D01*
G01*
X161775000Y-152875000D01*
G75*
G02*
X162025000Y-153125000I0J-250000D01*
G01*
X162025000Y-154375000D01*
G75*
G02*
X161775000Y-154625000I-250000J0D01*
G01*
X161025000Y-154625000D01*
G75*
G02*
X160775000Y-154375000I0J250000D01*
G01*
G37*
%TD*%
%TO.C,3225(1210)*%
G36*
G01*
X157975000Y-158075000D02*
X157975000Y-155925000D01*
G75*
G02*
X158225000Y-155675000I250000J0D01*
G01*
X158975000Y-155675000D01*
G75*
G02*
X159225000Y-155925000I0J-250000D01*
G01*
X159225000Y-158075000D01*
G75*
G02*
X158975000Y-158325000I-250000J0D01*
G01*
X158225000Y-158325000D01*
G75*
G02*
X157975000Y-158075000I0J250000D01*
G01*
G37*
G36*
G01*
X160775000Y-158075000D02*
X160775000Y-155925000D01*
G75*
G02*
X161025000Y-155675000I250000J0D01*
G01*
X161775000Y-155675000D01*
G75*
G02*
X162025000Y-155925000I0J-250000D01*
G01*
X162025000Y-158075000D01*
G75*
G02*
X161775000Y-158325000I-250000J0D01*
G01*
X161025000Y-158325000D01*
G75*
G02*
X160775000Y-158075000I0J250000D01*
G01*
G37*
%TD*%
%TO.C,1005(0402)*%
G36*
G01*
X148190000Y-135172500D02*
X148190000Y-134827500D01*
G75*
G02*
X148337500Y-134680000I147500J0D01*
G01*
X148632500Y-134680000D01*
G75*
G02*
X148780000Y-134827500I0J-147500D01*
G01*
X148780000Y-135172500D01*
G75*
G02*
X148632500Y-135320000I-147500J0D01*
G01*
X148337500Y-135320000D01*
G75*
G02*
X148190000Y-135172500I0J147500D01*
G01*
G37*
G36*
G01*
X147220000Y-135172500D02*
X147220000Y-134827500D01*
G75*
G02*
X147367500Y-134680000I147500J0D01*
G01*
X147662500Y-134680000D01*
G75*
G02*
X147810000Y-134827500I0J-147500D01*
G01*
X147810000Y-135172500D01*
G75*
G02*
X147662500Y-135320000I-147500J0D01*
G01*
X147367500Y-135320000D01*
G75*
G02*
X147220000Y-135172500I0J147500D01*
G01*
G37*
%TD*%
%TO.C,0603(0201)*%
G36*
G01*
X147496000Y-133100500D02*
X147496000Y-132899500D01*
G75*
G02*
X147575500Y-132820000I79500J0D01*
G01*
X147734500Y-132820000D01*
G75*
G02*
X147814000Y-132899500I0J-79500D01*
G01*
X147814000Y-133100500D01*
G75*
G02*
X147734500Y-133180000I-79500J0D01*
G01*
X147575500Y-133180000D01*
G75*
G02*
X147496000Y-133100500I0J79500D01*
G01*
G37*
G36*
G01*
X148186000Y-133100500D02*
X148186000Y-132899500D01*
G75*
G02*
X148265500Y-132820000I79500J0D01*
G01*
X148424500Y-132820000D01*
G75*
G02*
X148504000Y-132899500I0J-79500D01*
G01*
X148504000Y-133100500D01*
G75*
G02*
X148424500Y-133180000I-79500J0D01*
G01*
X148265500Y-133180000D01*
G75*
G02*
X148186000Y-133100500I0J79500D01*
G01*
G37*
%TD*%
%TO.C,0402(01005)*%
G36*
G01*
X148140000Y-131067500D02*
X148140000Y-130932500D01*
G75*
G02*
X148207500Y-130865000I67500J0D01*
G01*
X148342500Y-130865000D01*
G75*
G02*
X148410000Y-130932500I0J-67500D01*
G01*
X148410000Y-131067500D01*
G75*
G02*
X148342500Y-131135000I-67500J0D01*
G01*
X148207500Y-131135000D01*
G75*
G02*
X148140000Y-131067500I0J67500D01*
G01*
G37*
G36*
G01*
X147590000Y-131067500D02*
X147590000Y-130932500D01*
G75*
G02*
X147657500Y-130865000I67500J0D01*
G01*
X147792500Y-130865000D01*
G75*
G02*
X147860000Y-130932500I0J-67500D01*
G01*
X147860000Y-131067500D01*
G75*
G02*
X147792500Y-131135000I-67500J0D01*
G01*
X147657500Y-131135000D01*
G75*
G02*
X147590000Y-131067500I0J67500D01*
G01*
G37*
%TD*%
%TO.C,1608(0603)*%
G36*
G01*
X148350000Y-137256250D02*
X148350000Y-136743750D01*
G75*
G02*
X148568750Y-136525000I218750J0D01*
G01*
X149006250Y-136525000D01*
G75*
G02*
X149225000Y-136743750I0J-218750D01*
G01*
X149225000Y-137256250D01*
G75*
G02*
X149006250Y-137475000I-218750J0D01*
G01*
X148568750Y-137475000D01*
G75*
G02*
X148350000Y-137256250I0J218750D01*
G01*
G37*
G36*
G01*
X146775000Y-137256250D02*
X146775000Y-136743750D01*
G75*
G02*
X146993750Y-136525000I218750J0D01*
G01*
X147431250Y-136525000D01*
G75*
G02*
X147650000Y-136743750I0J-218750D01*
G01*
X147650000Y-137256250D01*
G75*
G02*
X147431250Y-137475000I-218750J0D01*
G01*
X146993750Y-137475000D01*
G75*
G02*
X146775000Y-137256250I0J218750D01*
G01*
G37*
%TD*%
%TO.C,2012(0805)*%
G36*
G01*
X160450000Y-131456250D02*
X160450000Y-130543750D01*
G75*
G02*
X160693750Y-130300000I243750J0D01*
G01*
X161181250Y-130300000D01*
G75*
G02*
X161425000Y-130543750I0J-243750D01*
G01*
X161425000Y-131456250D01*
G75*
G02*
X161181250Y-131700000I-243750J0D01*
G01*
X160693750Y-131700000D01*
G75*
G02*
X160450000Y-131456250I0J243750D01*
G01*
G37*
G36*
G01*
X158575000Y-131456250D02*
X158575000Y-130543750D01*
G75*
G02*
X158818750Y-130300000I243750J0D01*
G01*
X159306250Y-130300000D01*
G75*
G02*
X159550000Y-130543750I0J-243750D01*
G01*
X159550000Y-131456250D01*
G75*
G02*
X159306250Y-131700000I-243750J0D01*
G01*
X158818750Y-131700000D01*
G75*
G02*
X158575000Y-131456250I0J243750D01*
G01*
G37*
%TD*%
%TO.C,3216(1206)*%
G36*
G01*
X157975000Y-134375000D02*
X157975000Y-133125000D01*
G75*
G02*
X158225000Y-132875000I250000J0D01*
G01*
X158975000Y-132875000D01*
G75*
G02*
X159225000Y-133125000I0J-250000D01*
G01*
X159225000Y-134375000D01*
G75*
G02*
X158975000Y-134625000I-250000J0D01*
G01*
X158225000Y-134625000D01*
G75*
G02*
X157975000Y-134375000I0J250000D01*
G01*
G37*
G36*
G01*
X160775000Y-134375000D02*
X160775000Y-133125000D01*
G75*
G02*
X161025000Y-132875000I250000J0D01*
G01*
X161775000Y-132875000D01*
G75*
G02*
X162025000Y-133125000I0J-250000D01*
G01*
X162025000Y-134375000D01*
G75*
G02*
X161775000Y-134625000I-250000J0D01*
G01*
X161025000Y-134625000D01*
G75*
G02*
X160775000Y-134375000I0J250000D01*
G01*
G37*
%TD*%
%TO.C,3225(1210)*%
G36*
G01*
X157975000Y-138075000D02*
X157975000Y-135925000D01*
G75*
G02*
X158225000Y-135675000I250000J0D01*
G01*
X158975000Y-135675000D01*
G75*
G02*
X159225000Y-135925000I0J-250000D01*
G01*
X159225000Y-138075000D01*
G75*
G02*
X158975000Y-138325000I-250000J0D01*
G01*
X158225000Y-138325000D01*
G75*
G02*
X157975000Y-138075000I0J250000D01*
G01*
G37*
G36*
G01*
X160775000Y-138075000D02*
X160775000Y-135925000D01*
G75*
G02*
X161025000Y-135675000I250000J0D01*
G01*
X161775000Y-135675000D01*
G75*
G02*
X162025000Y-135925000I0J-250000D01*
G01*
X162025000Y-138075000D01*
G75*
G02*
X161775000Y-138325000I-250000J0D01*
G01*
X161025000Y-138325000D01*
G75*
G02*
X160775000Y-138075000I0J250000D01*
G01*
G37*
%TD*%
%TO.C,3225(1210)*%
G36*
G01*
X160775000Y-118075000D02*
X160775000Y-115925000D01*
G75*
G02*
X161025000Y-115675000I250000J0D01*
G01*
X161775000Y-115675000D01*
G75*
G02*
X162025000Y-115925000I0J-250000D01*
G01*
X162025000Y-118075000D01*
G75*
G02*
X161775000Y-118325000I-250000J0D01*
G01*
X161025000Y-118325000D01*
G75*
G02*
X160775000Y-118075000I0J250000D01*
G01*
G37*
G36*
G01*
X157975000Y-118075000D02*
X157975000Y-115925000D01*
G75*
G02*
X158225000Y-115675000I250000J0D01*
G01*
X158975000Y-115675000D01*
G75*
G02*
X159225000Y-115925000I0J-250000D01*
G01*
X159225000Y-118075000D01*
G75*
G02*
X158975000Y-118325000I-250000J0D01*
G01*
X158225000Y-118325000D01*
G75*
G02*
X157975000Y-118075000I0J250000D01*
G01*
G37*
%TD*%
%TO.C,3216(1206)*%
G36*
G01*
X160775000Y-114375000D02*
X160775000Y-113125000D01*
G75*
G02*
X161025000Y-112875000I250000J0D01*
G01*
X161775000Y-112875000D01*
G75*
G02*
X162025000Y-113125000I0J-250000D01*
G01*
X162025000Y-114375000D01*
G75*
G02*
X161775000Y-114625000I-250000J0D01*
G01*
X161025000Y-114625000D01*
G75*
G02*
X160775000Y-114375000I0J250000D01*
G01*
G37*
G36*
G01*
X157975000Y-114375000D02*
X157975000Y-113125000D01*
G75*
G02*
X158225000Y-112875000I250000J0D01*
G01*
X158975000Y-112875000D01*
G75*
G02*
X159225000Y-113125000I0J-250000D01*
G01*
X159225000Y-114375000D01*
G75*
G02*
X158975000Y-114625000I-250000J0D01*
G01*
X158225000Y-114625000D01*
G75*
G02*
X157975000Y-114375000I0J250000D01*
G01*
G37*
%TD*%
%TO.C,2012(0805)*%
G36*
G01*
X158575000Y-111456250D02*
X158575000Y-110543750D01*
G75*
G02*
X158818750Y-110300000I243750J0D01*
G01*
X159306250Y-110300000D01*
G75*
G02*
X159550000Y-110543750I0J-243750D01*
G01*
X159550000Y-111456250D01*
G75*
G02*
X159306250Y-111700000I-243750J0D01*
G01*
X158818750Y-111700000D01*
G75*
G02*
X158575000Y-111456250I0J243750D01*
G01*
G37*
G36*
G01*
X160450000Y-111456250D02*
X160450000Y-110543750D01*
G75*
G02*
X160693750Y-110300000I243750J0D01*
G01*
X161181250Y-110300000D01*
G75*
G02*
X161425000Y-110543750I0J-243750D01*
G01*
X161425000Y-111456250D01*
G75*
G02*
X161181250Y-111700000I-243750J0D01*
G01*
X160693750Y-111700000D01*
G75*
G02*
X160450000Y-111456250I0J243750D01*
G01*
G37*
%TD*%
%TO.C,1608(0603)*%
G36*
G01*
X146775000Y-117256250D02*
X146775000Y-116743750D01*
G75*
G02*
X146993750Y-116525000I218750J0D01*
G01*
X147431250Y-116525000D01*
G75*
G02*
X147650000Y-116743750I0J-218750D01*
G01*
X147650000Y-117256250D01*
G75*
G02*
X147431250Y-117475000I-218750J0D01*
G01*
X146993750Y-117475000D01*
G75*
G02*
X146775000Y-117256250I0J218750D01*
G01*
G37*
G36*
G01*
X148350000Y-117256250D02*
X148350000Y-116743750D01*
G75*
G02*
X148568750Y-116525000I218750J0D01*
G01*
X149006250Y-116525000D01*
G75*
G02*
X149225000Y-116743750I0J-218750D01*
G01*
X149225000Y-117256250D01*
G75*
G02*
X149006250Y-117475000I-218750J0D01*
G01*
X148568750Y-117475000D01*
G75*
G02*
X148350000Y-117256250I0J218750D01*
G01*
G37*
%TD*%
%TO.C,0402(01005)*%
G36*
G01*
X147590000Y-111067500D02*
X147590000Y-110932500D01*
G75*
G02*
X147657500Y-110865000I67500J0D01*
G01*
X147792500Y-110865000D01*
G75*
G02*
X147860000Y-110932500I0J-67500D01*
G01*
X147860000Y-111067500D01*
G75*
G02*
X147792500Y-111135000I-67500J0D01*
G01*
X147657500Y-111135000D01*
G75*
G02*
X147590000Y-111067500I0J67500D01*
G01*
G37*
G36*
G01*
X148140000Y-111067500D02*
X148140000Y-110932500D01*
G75*
G02*
X148207500Y-110865000I67500J0D01*
G01*
X148342500Y-110865000D01*
G75*
G02*
X148410000Y-110932500I0J-67500D01*
G01*
X148410000Y-111067500D01*
G75*
G02*
X148342500Y-111135000I-67500J0D01*
G01*
X148207500Y-111135000D01*
G75*
G02*
X148140000Y-111067500I0J67500D01*
G01*
G37*
%TD*%
%TO.C,0603(0201)*%
G36*
G01*
X148186000Y-113100500D02*
X148186000Y-112899500D01*
G75*
G02*
X148265500Y-112820000I79500J0D01*
G01*
X148424500Y-112820000D01*
G75*
G02*
X148504000Y-112899500I0J-79500D01*
G01*
X148504000Y-113100500D01*
G75*
G02*
X148424500Y-113180000I-79500J0D01*
G01*
X148265500Y-113180000D01*
G75*
G02*
X148186000Y-113100500I0J79500D01*
G01*
G37*
G36*
G01*
X147496000Y-113100500D02*
X147496000Y-112899500D01*
G75*
G02*
X147575500Y-112820000I79500J0D01*
G01*
X147734500Y-112820000D01*
G75*
G02*
X147814000Y-112899500I0J-79500D01*
G01*
X147814000Y-113100500D01*
G75*
G02*
X147734500Y-113180000I-79500J0D01*
G01*
X147575500Y-113180000D01*
G75*
G02*
X147496000Y-113100500I0J79500D01*
G01*
G37*
%TD*%
%TO.C,1005(0402)*%
G36*
G01*
X147220000Y-115172500D02*
X147220000Y-114827500D01*
G75*
G02*
X147367500Y-114680000I147500J0D01*
G01*
X147662500Y-114680000D01*
G75*
G02*
X147810000Y-114827500I0J-147500D01*
G01*
X147810000Y-115172500D01*
G75*
G02*
X147662500Y-115320000I-147500J0D01*
G01*
X147367500Y-115320000D01*
G75*
G02*
X147220000Y-115172500I0J147500D01*
G01*
G37*
G36*
G01*
X148190000Y-115172500D02*
X148190000Y-114827500D01*
G75*
G02*
X148337500Y-114680000I147500J0D01*
G01*
X148632500Y-114680000D01*
G75*
G02*
X148780000Y-114827500I0J-147500D01*
G01*
X148780000Y-115172500D01*
G75*
G02*
X148632500Y-115320000I-147500J0D01*
G01*
X148337500Y-115320000D01*
G75*
G02*
X148190000Y-115172500I0J147500D01*
G01*
G37*
%TD*%
M02*
