%TF.GenerationSoftware,KiCad,Pcbnew,(5.1.6-0-10_14)*%
%TF.CreationDate,2020-07-24T19:18:52+09:00*%
%TF.ProjectId,pcb_ruler,7063625f-7275-46c6-9572-2e6b69636164,rev?*%
%TF.SameCoordinates,Original*%
%TF.FileFunction,Soldermask,Top*%
%TF.FilePolarity,Negative*%
%FSLAX46Y46*%
G04 Gerber Fmt 4.6, Leading zero omitted, Abs format (unit mm)*
G04 Created by KiCad (PCBNEW (5.1.6-0-10_14)) date 2020-07-24 19:18:52*
%MOMM*%
%LPD*%
G01*
G04 APERTURE LIST*
%ADD10C,0.100000*%
%ADD11C,4.500000*%
%ADD12C,0.800000*%
G04 APERTURE END LIST*
D10*
G36*
X120000000Y-193000000D02*
G01*
X102000000Y-193000000D01*
X102000000Y-191000000D01*
X120000000Y-191000000D01*
X120000000Y-193000000D01*
G37*
X120000000Y-193000000D02*
X102000000Y-193000000D01*
X102000000Y-191000000D01*
X120000000Y-191000000D01*
X120000000Y-193000000D01*
G36*
X120000000Y-173000000D02*
G01*
X102000000Y-173000000D01*
X102000000Y-171000000D01*
X120000000Y-171000000D01*
X120000000Y-173000000D01*
G37*
X120000000Y-173000000D02*
X102000000Y-173000000D01*
X102000000Y-171000000D01*
X120000000Y-171000000D01*
X120000000Y-173000000D01*
G36*
X120000000Y-153000000D02*
G01*
X102000000Y-153000000D01*
X102000000Y-151000000D01*
X120000000Y-151000000D01*
X120000000Y-153000000D01*
G37*
X120000000Y-153000000D02*
X102000000Y-153000000D01*
X102000000Y-151000000D01*
X120000000Y-151000000D01*
X120000000Y-153000000D01*
G36*
X120000000Y-133000000D02*
G01*
X102000000Y-133000000D01*
X102000000Y-131000000D01*
X120000000Y-131000000D01*
X120000000Y-133000000D01*
G37*
X120000000Y-133000000D02*
X102000000Y-133000000D01*
X102000000Y-131000000D01*
X120000000Y-131000000D01*
X120000000Y-133000000D01*
G36*
X120000000Y-113000000D02*
G01*
X102000000Y-113000000D01*
X102000000Y-111000000D01*
X120000000Y-111000000D01*
X120000000Y-113000000D01*
G37*
X120000000Y-113000000D02*
X102000000Y-113000000D01*
X102000000Y-111000000D01*
X120000000Y-111000000D01*
X120000000Y-113000000D01*
%TO.C,1005(0402)*%
G36*
G01*
X148140000Y-195197500D02*
X148140000Y-194802500D01*
G75*
G02*
X148312500Y-194630000I172500J0D01*
G01*
X148657500Y-194630000D01*
G75*
G02*
X148830000Y-194802500I0J-172500D01*
G01*
X148830000Y-195197500D01*
G75*
G02*
X148657500Y-195370000I-172500J0D01*
G01*
X148312500Y-195370000D01*
G75*
G02*
X148140000Y-195197500I0J172500D01*
G01*
G37*
G36*
G01*
X147170000Y-195197500D02*
X147170000Y-194802500D01*
G75*
G02*
X147342500Y-194630000I172500J0D01*
G01*
X147687500Y-194630000D01*
G75*
G02*
X147860000Y-194802500I0J-172500D01*
G01*
X147860000Y-195197500D01*
G75*
G02*
X147687500Y-195370000I-172500J0D01*
G01*
X147342500Y-195370000D01*
G75*
G02*
X147170000Y-195197500I0J172500D01*
G01*
G37*
%TD*%
%TO.C,0603(0201)*%
G36*
G01*
X147400000Y-193125000D02*
X147400000Y-192875000D01*
G75*
G02*
X147525000Y-192750000I125000J0D01*
G01*
X147835000Y-192750000D01*
G75*
G02*
X147960000Y-192875000I0J-125000D01*
G01*
X147960000Y-193125000D01*
G75*
G02*
X147835000Y-193250000I-125000J0D01*
G01*
X147525000Y-193250000D01*
G75*
G02*
X147400000Y-193125000I0J125000D01*
G01*
G37*
G36*
G01*
X148040000Y-193125000D02*
X148040000Y-192875000D01*
G75*
G02*
X148165000Y-192750000I125000J0D01*
G01*
X148475000Y-192750000D01*
G75*
G02*
X148600000Y-192875000I0J-125000D01*
G01*
X148600000Y-193125000D01*
G75*
G02*
X148475000Y-193250000I-125000J0D01*
G01*
X148165000Y-193250000D01*
G75*
G02*
X148040000Y-193125000I0J125000D01*
G01*
G37*
%TD*%
%TO.C,0402(01005)*%
G36*
G01*
X148000000Y-191100000D02*
X148000000Y-190900000D01*
G75*
G02*
X148100000Y-190800000I100000J0D01*
G01*
X148400000Y-190800000D01*
G75*
G02*
X148500000Y-190900000I0J-100000D01*
G01*
X148500000Y-191100000D01*
G75*
G02*
X148400000Y-191200000I-100000J0D01*
G01*
X148100000Y-191200000D01*
G75*
G02*
X148000000Y-191100000I0J100000D01*
G01*
G37*
G36*
G01*
X147500000Y-191100000D02*
X147500000Y-190900000D01*
G75*
G02*
X147600000Y-190800000I100000J0D01*
G01*
X147900000Y-190800000D01*
G75*
G02*
X148000000Y-190900000I0J-100000D01*
G01*
X148000000Y-191100000D01*
G75*
G02*
X147900000Y-191200000I-100000J0D01*
G01*
X147600000Y-191200000D01*
G75*
G02*
X147500000Y-191100000I0J100000D01*
G01*
G37*
%TD*%
%TO.C,1608(0603)*%
G36*
G01*
X148300000Y-197281250D02*
X148300000Y-196718750D01*
G75*
G02*
X148543750Y-196475000I243750J0D01*
G01*
X149031250Y-196475000D01*
G75*
G02*
X149275000Y-196718750I0J-243750D01*
G01*
X149275000Y-197281250D01*
G75*
G02*
X149031250Y-197525000I-243750J0D01*
G01*
X148543750Y-197525000D01*
G75*
G02*
X148300000Y-197281250I0J243750D01*
G01*
G37*
G36*
G01*
X146725000Y-197281250D02*
X146725000Y-196718750D01*
G75*
G02*
X146968750Y-196475000I243750J0D01*
G01*
X147456250Y-196475000D01*
G75*
G02*
X147700000Y-196718750I0J-243750D01*
G01*
X147700000Y-197281250D01*
G75*
G02*
X147456250Y-197525000I-243750J0D01*
G01*
X146968750Y-197525000D01*
G75*
G02*
X146725000Y-197281250I0J243750D01*
G01*
G37*
%TD*%
%TO.C,2012(0805)*%
G36*
G01*
X160400000Y-191481250D02*
X160400000Y-190518750D01*
G75*
G02*
X160668750Y-190250000I268750J0D01*
G01*
X161206250Y-190250000D01*
G75*
G02*
X161475000Y-190518750I0J-268750D01*
G01*
X161475000Y-191481250D01*
G75*
G02*
X161206250Y-191750000I-268750J0D01*
G01*
X160668750Y-191750000D01*
G75*
G02*
X160400000Y-191481250I0J268750D01*
G01*
G37*
G36*
G01*
X158525000Y-191481250D02*
X158525000Y-190518750D01*
G75*
G02*
X158793750Y-190250000I268750J0D01*
G01*
X159331250Y-190250000D01*
G75*
G02*
X159600000Y-190518750I0J-268750D01*
G01*
X159600000Y-191481250D01*
G75*
G02*
X159331250Y-191750000I-268750J0D01*
G01*
X158793750Y-191750000D01*
G75*
G02*
X158525000Y-191481250I0J268750D01*
G01*
G37*
%TD*%
%TO.C,3216(1206)*%
G36*
G01*
X157925000Y-194405000D02*
X157925000Y-193095000D01*
G75*
G02*
X158195000Y-192825000I270000J0D01*
G01*
X159005000Y-192825000D01*
G75*
G02*
X159275000Y-193095000I0J-270000D01*
G01*
X159275000Y-194405000D01*
G75*
G02*
X159005000Y-194675000I-270000J0D01*
G01*
X158195000Y-194675000D01*
G75*
G02*
X157925000Y-194405000I0J270000D01*
G01*
G37*
G36*
G01*
X160725000Y-194405000D02*
X160725000Y-193095000D01*
G75*
G02*
X160995000Y-192825000I270000J0D01*
G01*
X161805000Y-192825000D01*
G75*
G02*
X162075000Y-193095000I0J-270000D01*
G01*
X162075000Y-194405000D01*
G75*
G02*
X161805000Y-194675000I-270000J0D01*
G01*
X160995000Y-194675000D01*
G75*
G02*
X160725000Y-194405000I0J270000D01*
G01*
G37*
%TD*%
%TO.C,3225(1210)*%
G36*
G01*
X157925000Y-198105000D02*
X157925000Y-195895000D01*
G75*
G02*
X158195000Y-195625000I270000J0D01*
G01*
X159005000Y-195625000D01*
G75*
G02*
X159275000Y-195895000I0J-270000D01*
G01*
X159275000Y-198105000D01*
G75*
G02*
X159005000Y-198375000I-270000J0D01*
G01*
X158195000Y-198375000D01*
G75*
G02*
X157925000Y-198105000I0J270000D01*
G01*
G37*
G36*
G01*
X160725000Y-198105000D02*
X160725000Y-195895000D01*
G75*
G02*
X160995000Y-195625000I270000J0D01*
G01*
X161805000Y-195625000D01*
G75*
G02*
X162075000Y-195895000I0J-270000D01*
G01*
X162075000Y-198105000D01*
G75*
G02*
X161805000Y-198375000I-270000J0D01*
G01*
X160995000Y-198375000D01*
G75*
G02*
X160725000Y-198105000I0J270000D01*
G01*
G37*
%TD*%
D11*
%TO.C,REF\u002A\u002A*%
X195000000Y-190000000D03*
D12*
X196650000Y-190000000D03*
X196166726Y-191166726D03*
X195000000Y-191650000D03*
X193833274Y-191166726D03*
X193350000Y-190000000D03*
X193833274Y-188833274D03*
X195000000Y-188350000D03*
X196166726Y-188833274D03*
%TD*%
%TO.C,1005(0402)*%
G36*
G01*
X148140000Y-175197500D02*
X148140000Y-174802500D01*
G75*
G02*
X148312500Y-174630000I172500J0D01*
G01*
X148657500Y-174630000D01*
G75*
G02*
X148830000Y-174802500I0J-172500D01*
G01*
X148830000Y-175197500D01*
G75*
G02*
X148657500Y-175370000I-172500J0D01*
G01*
X148312500Y-175370000D01*
G75*
G02*
X148140000Y-175197500I0J172500D01*
G01*
G37*
G36*
G01*
X147170000Y-175197500D02*
X147170000Y-174802500D01*
G75*
G02*
X147342500Y-174630000I172500J0D01*
G01*
X147687500Y-174630000D01*
G75*
G02*
X147860000Y-174802500I0J-172500D01*
G01*
X147860000Y-175197500D01*
G75*
G02*
X147687500Y-175370000I-172500J0D01*
G01*
X147342500Y-175370000D01*
G75*
G02*
X147170000Y-175197500I0J172500D01*
G01*
G37*
%TD*%
%TO.C,0603(0201)*%
G36*
G01*
X147400000Y-173125000D02*
X147400000Y-172875000D01*
G75*
G02*
X147525000Y-172750000I125000J0D01*
G01*
X147835000Y-172750000D01*
G75*
G02*
X147960000Y-172875000I0J-125000D01*
G01*
X147960000Y-173125000D01*
G75*
G02*
X147835000Y-173250000I-125000J0D01*
G01*
X147525000Y-173250000D01*
G75*
G02*
X147400000Y-173125000I0J125000D01*
G01*
G37*
G36*
G01*
X148040000Y-173125000D02*
X148040000Y-172875000D01*
G75*
G02*
X148165000Y-172750000I125000J0D01*
G01*
X148475000Y-172750000D01*
G75*
G02*
X148600000Y-172875000I0J-125000D01*
G01*
X148600000Y-173125000D01*
G75*
G02*
X148475000Y-173250000I-125000J0D01*
G01*
X148165000Y-173250000D01*
G75*
G02*
X148040000Y-173125000I0J125000D01*
G01*
G37*
%TD*%
%TO.C,0402(01005)*%
G36*
G01*
X148000000Y-171100000D02*
X148000000Y-170900000D01*
G75*
G02*
X148100000Y-170800000I100000J0D01*
G01*
X148400000Y-170800000D01*
G75*
G02*
X148500000Y-170900000I0J-100000D01*
G01*
X148500000Y-171100000D01*
G75*
G02*
X148400000Y-171200000I-100000J0D01*
G01*
X148100000Y-171200000D01*
G75*
G02*
X148000000Y-171100000I0J100000D01*
G01*
G37*
G36*
G01*
X147500000Y-171100000D02*
X147500000Y-170900000D01*
G75*
G02*
X147600000Y-170800000I100000J0D01*
G01*
X147900000Y-170800000D01*
G75*
G02*
X148000000Y-170900000I0J-100000D01*
G01*
X148000000Y-171100000D01*
G75*
G02*
X147900000Y-171200000I-100000J0D01*
G01*
X147600000Y-171200000D01*
G75*
G02*
X147500000Y-171100000I0J100000D01*
G01*
G37*
%TD*%
%TO.C,1608(0603)*%
G36*
G01*
X148300000Y-177281250D02*
X148300000Y-176718750D01*
G75*
G02*
X148543750Y-176475000I243750J0D01*
G01*
X149031250Y-176475000D01*
G75*
G02*
X149275000Y-176718750I0J-243750D01*
G01*
X149275000Y-177281250D01*
G75*
G02*
X149031250Y-177525000I-243750J0D01*
G01*
X148543750Y-177525000D01*
G75*
G02*
X148300000Y-177281250I0J243750D01*
G01*
G37*
G36*
G01*
X146725000Y-177281250D02*
X146725000Y-176718750D01*
G75*
G02*
X146968750Y-176475000I243750J0D01*
G01*
X147456250Y-176475000D01*
G75*
G02*
X147700000Y-176718750I0J-243750D01*
G01*
X147700000Y-177281250D01*
G75*
G02*
X147456250Y-177525000I-243750J0D01*
G01*
X146968750Y-177525000D01*
G75*
G02*
X146725000Y-177281250I0J243750D01*
G01*
G37*
%TD*%
%TO.C,2012(0805)*%
G36*
G01*
X160400000Y-171481250D02*
X160400000Y-170518750D01*
G75*
G02*
X160668750Y-170250000I268750J0D01*
G01*
X161206250Y-170250000D01*
G75*
G02*
X161475000Y-170518750I0J-268750D01*
G01*
X161475000Y-171481250D01*
G75*
G02*
X161206250Y-171750000I-268750J0D01*
G01*
X160668750Y-171750000D01*
G75*
G02*
X160400000Y-171481250I0J268750D01*
G01*
G37*
G36*
G01*
X158525000Y-171481250D02*
X158525000Y-170518750D01*
G75*
G02*
X158793750Y-170250000I268750J0D01*
G01*
X159331250Y-170250000D01*
G75*
G02*
X159600000Y-170518750I0J-268750D01*
G01*
X159600000Y-171481250D01*
G75*
G02*
X159331250Y-171750000I-268750J0D01*
G01*
X158793750Y-171750000D01*
G75*
G02*
X158525000Y-171481250I0J268750D01*
G01*
G37*
%TD*%
%TO.C,3216(1206)*%
G36*
G01*
X157925000Y-174405000D02*
X157925000Y-173095000D01*
G75*
G02*
X158195000Y-172825000I270000J0D01*
G01*
X159005000Y-172825000D01*
G75*
G02*
X159275000Y-173095000I0J-270000D01*
G01*
X159275000Y-174405000D01*
G75*
G02*
X159005000Y-174675000I-270000J0D01*
G01*
X158195000Y-174675000D01*
G75*
G02*
X157925000Y-174405000I0J270000D01*
G01*
G37*
G36*
G01*
X160725000Y-174405000D02*
X160725000Y-173095000D01*
G75*
G02*
X160995000Y-172825000I270000J0D01*
G01*
X161805000Y-172825000D01*
G75*
G02*
X162075000Y-173095000I0J-270000D01*
G01*
X162075000Y-174405000D01*
G75*
G02*
X161805000Y-174675000I-270000J0D01*
G01*
X160995000Y-174675000D01*
G75*
G02*
X160725000Y-174405000I0J270000D01*
G01*
G37*
%TD*%
%TO.C,3225(1210)*%
G36*
G01*
X157925000Y-178105000D02*
X157925000Y-175895000D01*
G75*
G02*
X158195000Y-175625000I270000J0D01*
G01*
X159005000Y-175625000D01*
G75*
G02*
X159275000Y-175895000I0J-270000D01*
G01*
X159275000Y-178105000D01*
G75*
G02*
X159005000Y-178375000I-270000J0D01*
G01*
X158195000Y-178375000D01*
G75*
G02*
X157925000Y-178105000I0J270000D01*
G01*
G37*
G36*
G01*
X160725000Y-178105000D02*
X160725000Y-175895000D01*
G75*
G02*
X160995000Y-175625000I270000J0D01*
G01*
X161805000Y-175625000D01*
G75*
G02*
X162075000Y-175895000I0J-270000D01*
G01*
X162075000Y-178105000D01*
G75*
G02*
X161805000Y-178375000I-270000J0D01*
G01*
X160995000Y-178375000D01*
G75*
G02*
X160725000Y-178105000I0J270000D01*
G01*
G37*
%TD*%
D11*
%TO.C,REF\u002A\u002A*%
X195000000Y-170000000D03*
D12*
X196650000Y-170000000D03*
X196166726Y-171166726D03*
X195000000Y-171650000D03*
X193833274Y-171166726D03*
X193350000Y-170000000D03*
X193833274Y-168833274D03*
X195000000Y-168350000D03*
X196166726Y-168833274D03*
%TD*%
%TO.C,1005(0402)*%
G36*
G01*
X148140000Y-155197500D02*
X148140000Y-154802500D01*
G75*
G02*
X148312500Y-154630000I172500J0D01*
G01*
X148657500Y-154630000D01*
G75*
G02*
X148830000Y-154802500I0J-172500D01*
G01*
X148830000Y-155197500D01*
G75*
G02*
X148657500Y-155370000I-172500J0D01*
G01*
X148312500Y-155370000D01*
G75*
G02*
X148140000Y-155197500I0J172500D01*
G01*
G37*
G36*
G01*
X147170000Y-155197500D02*
X147170000Y-154802500D01*
G75*
G02*
X147342500Y-154630000I172500J0D01*
G01*
X147687500Y-154630000D01*
G75*
G02*
X147860000Y-154802500I0J-172500D01*
G01*
X147860000Y-155197500D01*
G75*
G02*
X147687500Y-155370000I-172500J0D01*
G01*
X147342500Y-155370000D01*
G75*
G02*
X147170000Y-155197500I0J172500D01*
G01*
G37*
%TD*%
%TO.C,0603(0201)*%
G36*
G01*
X147400000Y-153125000D02*
X147400000Y-152875000D01*
G75*
G02*
X147525000Y-152750000I125000J0D01*
G01*
X147835000Y-152750000D01*
G75*
G02*
X147960000Y-152875000I0J-125000D01*
G01*
X147960000Y-153125000D01*
G75*
G02*
X147835000Y-153250000I-125000J0D01*
G01*
X147525000Y-153250000D01*
G75*
G02*
X147400000Y-153125000I0J125000D01*
G01*
G37*
G36*
G01*
X148040000Y-153125000D02*
X148040000Y-152875000D01*
G75*
G02*
X148165000Y-152750000I125000J0D01*
G01*
X148475000Y-152750000D01*
G75*
G02*
X148600000Y-152875000I0J-125000D01*
G01*
X148600000Y-153125000D01*
G75*
G02*
X148475000Y-153250000I-125000J0D01*
G01*
X148165000Y-153250000D01*
G75*
G02*
X148040000Y-153125000I0J125000D01*
G01*
G37*
%TD*%
%TO.C,0402(01005)*%
G36*
G01*
X148000000Y-151100000D02*
X148000000Y-150900000D01*
G75*
G02*
X148100000Y-150800000I100000J0D01*
G01*
X148400000Y-150800000D01*
G75*
G02*
X148500000Y-150900000I0J-100000D01*
G01*
X148500000Y-151100000D01*
G75*
G02*
X148400000Y-151200000I-100000J0D01*
G01*
X148100000Y-151200000D01*
G75*
G02*
X148000000Y-151100000I0J100000D01*
G01*
G37*
G36*
G01*
X147500000Y-151100000D02*
X147500000Y-150900000D01*
G75*
G02*
X147600000Y-150800000I100000J0D01*
G01*
X147900000Y-150800000D01*
G75*
G02*
X148000000Y-150900000I0J-100000D01*
G01*
X148000000Y-151100000D01*
G75*
G02*
X147900000Y-151200000I-100000J0D01*
G01*
X147600000Y-151200000D01*
G75*
G02*
X147500000Y-151100000I0J100000D01*
G01*
G37*
%TD*%
%TO.C,1608(0603)*%
G36*
G01*
X148300000Y-157281250D02*
X148300000Y-156718750D01*
G75*
G02*
X148543750Y-156475000I243750J0D01*
G01*
X149031250Y-156475000D01*
G75*
G02*
X149275000Y-156718750I0J-243750D01*
G01*
X149275000Y-157281250D01*
G75*
G02*
X149031250Y-157525000I-243750J0D01*
G01*
X148543750Y-157525000D01*
G75*
G02*
X148300000Y-157281250I0J243750D01*
G01*
G37*
G36*
G01*
X146725000Y-157281250D02*
X146725000Y-156718750D01*
G75*
G02*
X146968750Y-156475000I243750J0D01*
G01*
X147456250Y-156475000D01*
G75*
G02*
X147700000Y-156718750I0J-243750D01*
G01*
X147700000Y-157281250D01*
G75*
G02*
X147456250Y-157525000I-243750J0D01*
G01*
X146968750Y-157525000D01*
G75*
G02*
X146725000Y-157281250I0J243750D01*
G01*
G37*
%TD*%
%TO.C,2012(0805)*%
G36*
G01*
X160400000Y-151481250D02*
X160400000Y-150518750D01*
G75*
G02*
X160668750Y-150250000I268750J0D01*
G01*
X161206250Y-150250000D01*
G75*
G02*
X161475000Y-150518750I0J-268750D01*
G01*
X161475000Y-151481250D01*
G75*
G02*
X161206250Y-151750000I-268750J0D01*
G01*
X160668750Y-151750000D01*
G75*
G02*
X160400000Y-151481250I0J268750D01*
G01*
G37*
G36*
G01*
X158525000Y-151481250D02*
X158525000Y-150518750D01*
G75*
G02*
X158793750Y-150250000I268750J0D01*
G01*
X159331250Y-150250000D01*
G75*
G02*
X159600000Y-150518750I0J-268750D01*
G01*
X159600000Y-151481250D01*
G75*
G02*
X159331250Y-151750000I-268750J0D01*
G01*
X158793750Y-151750000D01*
G75*
G02*
X158525000Y-151481250I0J268750D01*
G01*
G37*
%TD*%
%TO.C,3216(1206)*%
G36*
G01*
X157925000Y-154405000D02*
X157925000Y-153095000D01*
G75*
G02*
X158195000Y-152825000I270000J0D01*
G01*
X159005000Y-152825000D01*
G75*
G02*
X159275000Y-153095000I0J-270000D01*
G01*
X159275000Y-154405000D01*
G75*
G02*
X159005000Y-154675000I-270000J0D01*
G01*
X158195000Y-154675000D01*
G75*
G02*
X157925000Y-154405000I0J270000D01*
G01*
G37*
G36*
G01*
X160725000Y-154405000D02*
X160725000Y-153095000D01*
G75*
G02*
X160995000Y-152825000I270000J0D01*
G01*
X161805000Y-152825000D01*
G75*
G02*
X162075000Y-153095000I0J-270000D01*
G01*
X162075000Y-154405000D01*
G75*
G02*
X161805000Y-154675000I-270000J0D01*
G01*
X160995000Y-154675000D01*
G75*
G02*
X160725000Y-154405000I0J270000D01*
G01*
G37*
%TD*%
%TO.C,3225(1210)*%
G36*
G01*
X157925000Y-158105000D02*
X157925000Y-155895000D01*
G75*
G02*
X158195000Y-155625000I270000J0D01*
G01*
X159005000Y-155625000D01*
G75*
G02*
X159275000Y-155895000I0J-270000D01*
G01*
X159275000Y-158105000D01*
G75*
G02*
X159005000Y-158375000I-270000J0D01*
G01*
X158195000Y-158375000D01*
G75*
G02*
X157925000Y-158105000I0J270000D01*
G01*
G37*
G36*
G01*
X160725000Y-158105000D02*
X160725000Y-155895000D01*
G75*
G02*
X160995000Y-155625000I270000J0D01*
G01*
X161805000Y-155625000D01*
G75*
G02*
X162075000Y-155895000I0J-270000D01*
G01*
X162075000Y-158105000D01*
G75*
G02*
X161805000Y-158375000I-270000J0D01*
G01*
X160995000Y-158375000D01*
G75*
G02*
X160725000Y-158105000I0J270000D01*
G01*
G37*
%TD*%
D11*
%TO.C,REF\u002A\u002A*%
X195000000Y-150000000D03*
D12*
X196650000Y-150000000D03*
X196166726Y-151166726D03*
X195000000Y-151650000D03*
X193833274Y-151166726D03*
X193350000Y-150000000D03*
X193833274Y-148833274D03*
X195000000Y-148350000D03*
X196166726Y-148833274D03*
%TD*%
%TO.C,1005(0402)*%
G36*
G01*
X148140000Y-135197500D02*
X148140000Y-134802500D01*
G75*
G02*
X148312500Y-134630000I172500J0D01*
G01*
X148657500Y-134630000D01*
G75*
G02*
X148830000Y-134802500I0J-172500D01*
G01*
X148830000Y-135197500D01*
G75*
G02*
X148657500Y-135370000I-172500J0D01*
G01*
X148312500Y-135370000D01*
G75*
G02*
X148140000Y-135197500I0J172500D01*
G01*
G37*
G36*
G01*
X147170000Y-135197500D02*
X147170000Y-134802500D01*
G75*
G02*
X147342500Y-134630000I172500J0D01*
G01*
X147687500Y-134630000D01*
G75*
G02*
X147860000Y-134802500I0J-172500D01*
G01*
X147860000Y-135197500D01*
G75*
G02*
X147687500Y-135370000I-172500J0D01*
G01*
X147342500Y-135370000D01*
G75*
G02*
X147170000Y-135197500I0J172500D01*
G01*
G37*
%TD*%
%TO.C,0603(0201)*%
G36*
G01*
X147400000Y-133125000D02*
X147400000Y-132875000D01*
G75*
G02*
X147525000Y-132750000I125000J0D01*
G01*
X147835000Y-132750000D01*
G75*
G02*
X147960000Y-132875000I0J-125000D01*
G01*
X147960000Y-133125000D01*
G75*
G02*
X147835000Y-133250000I-125000J0D01*
G01*
X147525000Y-133250000D01*
G75*
G02*
X147400000Y-133125000I0J125000D01*
G01*
G37*
G36*
G01*
X148040000Y-133125000D02*
X148040000Y-132875000D01*
G75*
G02*
X148165000Y-132750000I125000J0D01*
G01*
X148475000Y-132750000D01*
G75*
G02*
X148600000Y-132875000I0J-125000D01*
G01*
X148600000Y-133125000D01*
G75*
G02*
X148475000Y-133250000I-125000J0D01*
G01*
X148165000Y-133250000D01*
G75*
G02*
X148040000Y-133125000I0J125000D01*
G01*
G37*
%TD*%
%TO.C,0402(01005)*%
G36*
G01*
X148000000Y-131100000D02*
X148000000Y-130900000D01*
G75*
G02*
X148100000Y-130800000I100000J0D01*
G01*
X148400000Y-130800000D01*
G75*
G02*
X148500000Y-130900000I0J-100000D01*
G01*
X148500000Y-131100000D01*
G75*
G02*
X148400000Y-131200000I-100000J0D01*
G01*
X148100000Y-131200000D01*
G75*
G02*
X148000000Y-131100000I0J100000D01*
G01*
G37*
G36*
G01*
X147500000Y-131100000D02*
X147500000Y-130900000D01*
G75*
G02*
X147600000Y-130800000I100000J0D01*
G01*
X147900000Y-130800000D01*
G75*
G02*
X148000000Y-130900000I0J-100000D01*
G01*
X148000000Y-131100000D01*
G75*
G02*
X147900000Y-131200000I-100000J0D01*
G01*
X147600000Y-131200000D01*
G75*
G02*
X147500000Y-131100000I0J100000D01*
G01*
G37*
%TD*%
%TO.C,1608(0603)*%
G36*
G01*
X148300000Y-137281250D02*
X148300000Y-136718750D01*
G75*
G02*
X148543750Y-136475000I243750J0D01*
G01*
X149031250Y-136475000D01*
G75*
G02*
X149275000Y-136718750I0J-243750D01*
G01*
X149275000Y-137281250D01*
G75*
G02*
X149031250Y-137525000I-243750J0D01*
G01*
X148543750Y-137525000D01*
G75*
G02*
X148300000Y-137281250I0J243750D01*
G01*
G37*
G36*
G01*
X146725000Y-137281250D02*
X146725000Y-136718750D01*
G75*
G02*
X146968750Y-136475000I243750J0D01*
G01*
X147456250Y-136475000D01*
G75*
G02*
X147700000Y-136718750I0J-243750D01*
G01*
X147700000Y-137281250D01*
G75*
G02*
X147456250Y-137525000I-243750J0D01*
G01*
X146968750Y-137525000D01*
G75*
G02*
X146725000Y-137281250I0J243750D01*
G01*
G37*
%TD*%
%TO.C,2012(0805)*%
G36*
G01*
X160400000Y-131481250D02*
X160400000Y-130518750D01*
G75*
G02*
X160668750Y-130250000I268750J0D01*
G01*
X161206250Y-130250000D01*
G75*
G02*
X161475000Y-130518750I0J-268750D01*
G01*
X161475000Y-131481250D01*
G75*
G02*
X161206250Y-131750000I-268750J0D01*
G01*
X160668750Y-131750000D01*
G75*
G02*
X160400000Y-131481250I0J268750D01*
G01*
G37*
G36*
G01*
X158525000Y-131481250D02*
X158525000Y-130518750D01*
G75*
G02*
X158793750Y-130250000I268750J0D01*
G01*
X159331250Y-130250000D01*
G75*
G02*
X159600000Y-130518750I0J-268750D01*
G01*
X159600000Y-131481250D01*
G75*
G02*
X159331250Y-131750000I-268750J0D01*
G01*
X158793750Y-131750000D01*
G75*
G02*
X158525000Y-131481250I0J268750D01*
G01*
G37*
%TD*%
%TO.C,3216(1206)*%
G36*
G01*
X157925000Y-134405000D02*
X157925000Y-133095000D01*
G75*
G02*
X158195000Y-132825000I270000J0D01*
G01*
X159005000Y-132825000D01*
G75*
G02*
X159275000Y-133095000I0J-270000D01*
G01*
X159275000Y-134405000D01*
G75*
G02*
X159005000Y-134675000I-270000J0D01*
G01*
X158195000Y-134675000D01*
G75*
G02*
X157925000Y-134405000I0J270000D01*
G01*
G37*
G36*
G01*
X160725000Y-134405000D02*
X160725000Y-133095000D01*
G75*
G02*
X160995000Y-132825000I270000J0D01*
G01*
X161805000Y-132825000D01*
G75*
G02*
X162075000Y-133095000I0J-270000D01*
G01*
X162075000Y-134405000D01*
G75*
G02*
X161805000Y-134675000I-270000J0D01*
G01*
X160995000Y-134675000D01*
G75*
G02*
X160725000Y-134405000I0J270000D01*
G01*
G37*
%TD*%
%TO.C,3225(1210)*%
G36*
G01*
X157925000Y-138105000D02*
X157925000Y-135895000D01*
G75*
G02*
X158195000Y-135625000I270000J0D01*
G01*
X159005000Y-135625000D01*
G75*
G02*
X159275000Y-135895000I0J-270000D01*
G01*
X159275000Y-138105000D01*
G75*
G02*
X159005000Y-138375000I-270000J0D01*
G01*
X158195000Y-138375000D01*
G75*
G02*
X157925000Y-138105000I0J270000D01*
G01*
G37*
G36*
G01*
X160725000Y-138105000D02*
X160725000Y-135895000D01*
G75*
G02*
X160995000Y-135625000I270000J0D01*
G01*
X161805000Y-135625000D01*
G75*
G02*
X162075000Y-135895000I0J-270000D01*
G01*
X162075000Y-138105000D01*
G75*
G02*
X161805000Y-138375000I-270000J0D01*
G01*
X160995000Y-138375000D01*
G75*
G02*
X160725000Y-138105000I0J270000D01*
G01*
G37*
%TD*%
D11*
%TO.C,REF\u002A\u002A*%
X195000000Y-130000000D03*
D12*
X196650000Y-130000000D03*
X196166726Y-131166726D03*
X195000000Y-131650000D03*
X193833274Y-131166726D03*
X193350000Y-130000000D03*
X193833274Y-128833274D03*
X195000000Y-128350000D03*
X196166726Y-128833274D03*
%TD*%
%TO.C,REF\u002A\u002A*%
X196166726Y-108833274D03*
X195000000Y-108350000D03*
X193833274Y-108833274D03*
X193350000Y-110000000D03*
X193833274Y-111166726D03*
X195000000Y-111650000D03*
X196166726Y-111166726D03*
X196650000Y-110000000D03*
D11*
X195000000Y-110000000D03*
%TD*%
%TO.C,3225(1210)*%
G36*
G01*
X160725000Y-118105000D02*
X160725000Y-115895000D01*
G75*
G02*
X160995000Y-115625000I270000J0D01*
G01*
X161805000Y-115625000D01*
G75*
G02*
X162075000Y-115895000I0J-270000D01*
G01*
X162075000Y-118105000D01*
G75*
G02*
X161805000Y-118375000I-270000J0D01*
G01*
X160995000Y-118375000D01*
G75*
G02*
X160725000Y-118105000I0J270000D01*
G01*
G37*
G36*
G01*
X157925000Y-118105000D02*
X157925000Y-115895000D01*
G75*
G02*
X158195000Y-115625000I270000J0D01*
G01*
X159005000Y-115625000D01*
G75*
G02*
X159275000Y-115895000I0J-270000D01*
G01*
X159275000Y-118105000D01*
G75*
G02*
X159005000Y-118375000I-270000J0D01*
G01*
X158195000Y-118375000D01*
G75*
G02*
X157925000Y-118105000I0J270000D01*
G01*
G37*
%TD*%
%TO.C,3216(1206)*%
G36*
G01*
X160725000Y-114405000D02*
X160725000Y-113095000D01*
G75*
G02*
X160995000Y-112825000I270000J0D01*
G01*
X161805000Y-112825000D01*
G75*
G02*
X162075000Y-113095000I0J-270000D01*
G01*
X162075000Y-114405000D01*
G75*
G02*
X161805000Y-114675000I-270000J0D01*
G01*
X160995000Y-114675000D01*
G75*
G02*
X160725000Y-114405000I0J270000D01*
G01*
G37*
G36*
G01*
X157925000Y-114405000D02*
X157925000Y-113095000D01*
G75*
G02*
X158195000Y-112825000I270000J0D01*
G01*
X159005000Y-112825000D01*
G75*
G02*
X159275000Y-113095000I0J-270000D01*
G01*
X159275000Y-114405000D01*
G75*
G02*
X159005000Y-114675000I-270000J0D01*
G01*
X158195000Y-114675000D01*
G75*
G02*
X157925000Y-114405000I0J270000D01*
G01*
G37*
%TD*%
%TO.C,2012(0805)*%
G36*
G01*
X158525000Y-111481250D02*
X158525000Y-110518750D01*
G75*
G02*
X158793750Y-110250000I268750J0D01*
G01*
X159331250Y-110250000D01*
G75*
G02*
X159600000Y-110518750I0J-268750D01*
G01*
X159600000Y-111481250D01*
G75*
G02*
X159331250Y-111750000I-268750J0D01*
G01*
X158793750Y-111750000D01*
G75*
G02*
X158525000Y-111481250I0J268750D01*
G01*
G37*
G36*
G01*
X160400000Y-111481250D02*
X160400000Y-110518750D01*
G75*
G02*
X160668750Y-110250000I268750J0D01*
G01*
X161206250Y-110250000D01*
G75*
G02*
X161475000Y-110518750I0J-268750D01*
G01*
X161475000Y-111481250D01*
G75*
G02*
X161206250Y-111750000I-268750J0D01*
G01*
X160668750Y-111750000D01*
G75*
G02*
X160400000Y-111481250I0J268750D01*
G01*
G37*
%TD*%
%TO.C,1608(0603)*%
G36*
G01*
X146725000Y-117281250D02*
X146725000Y-116718750D01*
G75*
G02*
X146968750Y-116475000I243750J0D01*
G01*
X147456250Y-116475000D01*
G75*
G02*
X147700000Y-116718750I0J-243750D01*
G01*
X147700000Y-117281250D01*
G75*
G02*
X147456250Y-117525000I-243750J0D01*
G01*
X146968750Y-117525000D01*
G75*
G02*
X146725000Y-117281250I0J243750D01*
G01*
G37*
G36*
G01*
X148300000Y-117281250D02*
X148300000Y-116718750D01*
G75*
G02*
X148543750Y-116475000I243750J0D01*
G01*
X149031250Y-116475000D01*
G75*
G02*
X149275000Y-116718750I0J-243750D01*
G01*
X149275000Y-117281250D01*
G75*
G02*
X149031250Y-117525000I-243750J0D01*
G01*
X148543750Y-117525000D01*
G75*
G02*
X148300000Y-117281250I0J243750D01*
G01*
G37*
%TD*%
%TO.C,0402(01005)*%
G36*
G01*
X147500000Y-111100000D02*
X147500000Y-110900000D01*
G75*
G02*
X147600000Y-110800000I100000J0D01*
G01*
X147900000Y-110800000D01*
G75*
G02*
X148000000Y-110900000I0J-100000D01*
G01*
X148000000Y-111100000D01*
G75*
G02*
X147900000Y-111200000I-100000J0D01*
G01*
X147600000Y-111200000D01*
G75*
G02*
X147500000Y-111100000I0J100000D01*
G01*
G37*
G36*
G01*
X148000000Y-111100000D02*
X148000000Y-110900000D01*
G75*
G02*
X148100000Y-110800000I100000J0D01*
G01*
X148400000Y-110800000D01*
G75*
G02*
X148500000Y-110900000I0J-100000D01*
G01*
X148500000Y-111100000D01*
G75*
G02*
X148400000Y-111200000I-100000J0D01*
G01*
X148100000Y-111200000D01*
G75*
G02*
X148000000Y-111100000I0J100000D01*
G01*
G37*
%TD*%
%TO.C,0603(0201)*%
G36*
G01*
X148040000Y-113125000D02*
X148040000Y-112875000D01*
G75*
G02*
X148165000Y-112750000I125000J0D01*
G01*
X148475000Y-112750000D01*
G75*
G02*
X148600000Y-112875000I0J-125000D01*
G01*
X148600000Y-113125000D01*
G75*
G02*
X148475000Y-113250000I-125000J0D01*
G01*
X148165000Y-113250000D01*
G75*
G02*
X148040000Y-113125000I0J125000D01*
G01*
G37*
G36*
G01*
X147400000Y-113125000D02*
X147400000Y-112875000D01*
G75*
G02*
X147525000Y-112750000I125000J0D01*
G01*
X147835000Y-112750000D01*
G75*
G02*
X147960000Y-112875000I0J-125000D01*
G01*
X147960000Y-113125000D01*
G75*
G02*
X147835000Y-113250000I-125000J0D01*
G01*
X147525000Y-113250000D01*
G75*
G02*
X147400000Y-113125000I0J125000D01*
G01*
G37*
%TD*%
%TO.C,1005(0402)*%
G36*
G01*
X147170000Y-115197500D02*
X147170000Y-114802500D01*
G75*
G02*
X147342500Y-114630000I172500J0D01*
G01*
X147687500Y-114630000D01*
G75*
G02*
X147860000Y-114802500I0J-172500D01*
G01*
X147860000Y-115197500D01*
G75*
G02*
X147687500Y-115370000I-172500J0D01*
G01*
X147342500Y-115370000D01*
G75*
G02*
X147170000Y-115197500I0J172500D01*
G01*
G37*
G36*
G01*
X148140000Y-115197500D02*
X148140000Y-114802500D01*
G75*
G02*
X148312500Y-114630000I172500J0D01*
G01*
X148657500Y-114630000D01*
G75*
G02*
X148830000Y-114802500I0J-172500D01*
G01*
X148830000Y-115197500D01*
G75*
G02*
X148657500Y-115370000I-172500J0D01*
G01*
X148312500Y-115370000D01*
G75*
G02*
X148140000Y-115197500I0J172500D01*
G01*
G37*
%TD*%
M02*
