%TF.GenerationSoftware,KiCad,Pcbnew,(5.1.6-0-10_14)*%
%TF.CreationDate,2020-07-24T19:18:52+09:00*%
%TF.ProjectId,pcb_ruler,7063625f-7275-46c6-9572-2e6b69636164,rev?*%
%TF.SameCoordinates,Original*%
%TF.FileFunction,Copper,L1,Top*%
%TF.FilePolarity,Positive*%
%FSLAX46Y46*%
G04 Gerber Fmt 4.6, Leading zero omitted, Abs format (unit mm)*
G04 Created by KiCad (PCBNEW (5.1.6-0-10_14)) date 2020-07-24 19:18:52*
%MOMM*%
%LPD*%
G01*
G04 APERTURE LIST*
%TA.AperFunction,ComponentPad*%
%ADD10C,4.400000*%
%TD*%
%TA.AperFunction,ComponentPad*%
%ADD11C,0.700000*%
%TD*%
%TA.AperFunction,Conductor*%
%ADD12C,0.100000*%
%TD*%
%TA.AperFunction,Conductor*%
%ADD13C,0.150000*%
%TD*%
%TA.AperFunction,Conductor*%
%ADD14C,0.200000*%
%TD*%
%TA.AperFunction,Conductor*%
%ADD15C,0.250000*%
%TD*%
%TA.AperFunction,Conductor*%
%ADD16C,0.300000*%
%TD*%
%TA.AperFunction,Conductor*%
%ADD17C,0.350000*%
%TD*%
%TA.AperFunction,Conductor*%
%ADD18C,0.450000*%
%TD*%
%TA.AperFunction,Conductor*%
%ADD19C,0.500000*%
%TD*%
%TA.AperFunction,Conductor*%
%ADD20C,0.400000*%
%TD*%
G04 APERTURE END LIST*
%TO.P,1005(0402),2*%
%TO.N,N/C*%
%TA.AperFunction,SMDPad,CuDef*%
G36*
G01*
X148190000Y-195172500D02*
X148190000Y-194827500D01*
G75*
G02*
X148337500Y-194680000I147500J0D01*
G01*
X148632500Y-194680000D01*
G75*
G02*
X148780000Y-194827500I0J-147500D01*
G01*
X148780000Y-195172500D01*
G75*
G02*
X148632500Y-195320000I-147500J0D01*
G01*
X148337500Y-195320000D01*
G75*
G02*
X148190000Y-195172500I0J147500D01*
G01*
G37*
%TD.AperFunction*%
%TO.P,1005(0402),1*%
%TA.AperFunction,SMDPad,CuDef*%
G36*
G01*
X147220000Y-195172500D02*
X147220000Y-194827500D01*
G75*
G02*
X147367500Y-194680000I147500J0D01*
G01*
X147662500Y-194680000D01*
G75*
G02*
X147810000Y-194827500I0J-147500D01*
G01*
X147810000Y-195172500D01*
G75*
G02*
X147662500Y-195320000I-147500J0D01*
G01*
X147367500Y-195320000D01*
G75*
G02*
X147220000Y-195172500I0J147500D01*
G01*
G37*
%TD.AperFunction*%
%TD*%
%TO.P,0603(0201),1*%
%TO.N,N/C*%
%TA.AperFunction,SMDPad,CuDef*%
G36*
G01*
X147450000Y-193100000D02*
X147450000Y-192900000D01*
G75*
G02*
X147550000Y-192800000I100000J0D01*
G01*
X147810000Y-192800000D01*
G75*
G02*
X147910000Y-192900000I0J-100000D01*
G01*
X147910000Y-193100000D01*
G75*
G02*
X147810000Y-193200000I-100000J0D01*
G01*
X147550000Y-193200000D01*
G75*
G02*
X147450000Y-193100000I0J100000D01*
G01*
G37*
%TD.AperFunction*%
%TO.P,0603(0201),2*%
%TA.AperFunction,SMDPad,CuDef*%
G36*
G01*
X148090000Y-193100000D02*
X148090000Y-192900000D01*
G75*
G02*
X148190000Y-192800000I100000J0D01*
G01*
X148450000Y-192800000D01*
G75*
G02*
X148550000Y-192900000I0J-100000D01*
G01*
X148550000Y-193100000D01*
G75*
G02*
X148450000Y-193200000I-100000J0D01*
G01*
X148190000Y-193200000D01*
G75*
G02*
X148090000Y-193100000I0J100000D01*
G01*
G37*
%TD.AperFunction*%
%TD*%
%TO.P,0402(01005),2*%
%TO.N,N/C*%
%TA.AperFunction,SMDPad,CuDef*%
G36*
G01*
X148050000Y-191075000D02*
X148050000Y-190925000D01*
G75*
G02*
X148125000Y-190850000I75000J0D01*
G01*
X148375000Y-190850000D01*
G75*
G02*
X148450000Y-190925000I0J-75000D01*
G01*
X148450000Y-191075000D01*
G75*
G02*
X148375000Y-191150000I-75000J0D01*
G01*
X148125000Y-191150000D01*
G75*
G02*
X148050000Y-191075000I0J75000D01*
G01*
G37*
%TD.AperFunction*%
%TO.P,0402(01005),1*%
%TA.AperFunction,SMDPad,CuDef*%
G36*
G01*
X147550000Y-191075000D02*
X147550000Y-190925000D01*
G75*
G02*
X147625000Y-190850000I75000J0D01*
G01*
X147875000Y-190850000D01*
G75*
G02*
X147950000Y-190925000I0J-75000D01*
G01*
X147950000Y-191075000D01*
G75*
G02*
X147875000Y-191150000I-75000J0D01*
G01*
X147625000Y-191150000D01*
G75*
G02*
X147550000Y-191075000I0J75000D01*
G01*
G37*
%TD.AperFunction*%
%TD*%
%TO.P,1608(0603),2*%
%TO.N,N/C*%
%TA.AperFunction,SMDPad,CuDef*%
G36*
G01*
X148350000Y-197256250D02*
X148350000Y-196743750D01*
G75*
G02*
X148568750Y-196525000I218750J0D01*
G01*
X149006250Y-196525000D01*
G75*
G02*
X149225000Y-196743750I0J-218750D01*
G01*
X149225000Y-197256250D01*
G75*
G02*
X149006250Y-197475000I-218750J0D01*
G01*
X148568750Y-197475000D01*
G75*
G02*
X148350000Y-197256250I0J218750D01*
G01*
G37*
%TD.AperFunction*%
%TO.P,1608(0603),1*%
%TA.AperFunction,SMDPad,CuDef*%
G36*
G01*
X146775000Y-197256250D02*
X146775000Y-196743750D01*
G75*
G02*
X146993750Y-196525000I218750J0D01*
G01*
X147431250Y-196525000D01*
G75*
G02*
X147650000Y-196743750I0J-218750D01*
G01*
X147650000Y-197256250D01*
G75*
G02*
X147431250Y-197475000I-218750J0D01*
G01*
X146993750Y-197475000D01*
G75*
G02*
X146775000Y-197256250I0J218750D01*
G01*
G37*
%TD.AperFunction*%
%TD*%
%TO.P,2012(0805),2*%
%TO.N,N/C*%
%TA.AperFunction,SMDPad,CuDef*%
G36*
G01*
X160450000Y-191456250D02*
X160450000Y-190543750D01*
G75*
G02*
X160693750Y-190300000I243750J0D01*
G01*
X161181250Y-190300000D01*
G75*
G02*
X161425000Y-190543750I0J-243750D01*
G01*
X161425000Y-191456250D01*
G75*
G02*
X161181250Y-191700000I-243750J0D01*
G01*
X160693750Y-191700000D01*
G75*
G02*
X160450000Y-191456250I0J243750D01*
G01*
G37*
%TD.AperFunction*%
%TO.P,2012(0805),1*%
%TA.AperFunction,SMDPad,CuDef*%
G36*
G01*
X158575000Y-191456250D02*
X158575000Y-190543750D01*
G75*
G02*
X158818750Y-190300000I243750J0D01*
G01*
X159306250Y-190300000D01*
G75*
G02*
X159550000Y-190543750I0J-243750D01*
G01*
X159550000Y-191456250D01*
G75*
G02*
X159306250Y-191700000I-243750J0D01*
G01*
X158818750Y-191700000D01*
G75*
G02*
X158575000Y-191456250I0J243750D01*
G01*
G37*
%TD.AperFunction*%
%TD*%
%TO.P,3216(1206),1*%
%TO.N,N/C*%
%TA.AperFunction,SMDPad,CuDef*%
G36*
G01*
X157975000Y-194375000D02*
X157975000Y-193125000D01*
G75*
G02*
X158225000Y-192875000I250000J0D01*
G01*
X158975000Y-192875000D01*
G75*
G02*
X159225000Y-193125000I0J-250000D01*
G01*
X159225000Y-194375000D01*
G75*
G02*
X158975000Y-194625000I-250000J0D01*
G01*
X158225000Y-194625000D01*
G75*
G02*
X157975000Y-194375000I0J250000D01*
G01*
G37*
%TD.AperFunction*%
%TO.P,3216(1206),2*%
%TA.AperFunction,SMDPad,CuDef*%
G36*
G01*
X160775000Y-194375000D02*
X160775000Y-193125000D01*
G75*
G02*
X161025000Y-192875000I250000J0D01*
G01*
X161775000Y-192875000D01*
G75*
G02*
X162025000Y-193125000I0J-250000D01*
G01*
X162025000Y-194375000D01*
G75*
G02*
X161775000Y-194625000I-250000J0D01*
G01*
X161025000Y-194625000D01*
G75*
G02*
X160775000Y-194375000I0J250000D01*
G01*
G37*
%TD.AperFunction*%
%TD*%
%TO.P,3225(1210),1*%
%TO.N,N/C*%
%TA.AperFunction,SMDPad,CuDef*%
G36*
G01*
X157975000Y-198075000D02*
X157975000Y-195925000D01*
G75*
G02*
X158225000Y-195675000I250000J0D01*
G01*
X158975000Y-195675000D01*
G75*
G02*
X159225000Y-195925000I0J-250000D01*
G01*
X159225000Y-198075000D01*
G75*
G02*
X158975000Y-198325000I-250000J0D01*
G01*
X158225000Y-198325000D01*
G75*
G02*
X157975000Y-198075000I0J250000D01*
G01*
G37*
%TD.AperFunction*%
%TO.P,3225(1210),2*%
%TA.AperFunction,SMDPad,CuDef*%
G36*
G01*
X160775000Y-198075000D02*
X160775000Y-195925000D01*
G75*
G02*
X161025000Y-195675000I250000J0D01*
G01*
X161775000Y-195675000D01*
G75*
G02*
X162025000Y-195925000I0J-250000D01*
G01*
X162025000Y-198075000D01*
G75*
G02*
X161775000Y-198325000I-250000J0D01*
G01*
X161025000Y-198325000D01*
G75*
G02*
X160775000Y-198075000I0J250000D01*
G01*
G37*
%TD.AperFunction*%
%TD*%
D10*
%TO.P,REF\u002A\u002A,1*%
%TO.N,N/C*%
X195000000Y-190000000D03*
D11*
X196650000Y-190000000D03*
X196166726Y-191166726D03*
X195000000Y-191650000D03*
X193833274Y-191166726D03*
X193350000Y-190000000D03*
X193833274Y-188833274D03*
X195000000Y-188350000D03*
X196166726Y-188833274D03*
%TD*%
%TO.P,1005(0402),2*%
%TO.N,N/C*%
%TA.AperFunction,SMDPad,CuDef*%
G36*
G01*
X148190000Y-175172500D02*
X148190000Y-174827500D01*
G75*
G02*
X148337500Y-174680000I147500J0D01*
G01*
X148632500Y-174680000D01*
G75*
G02*
X148780000Y-174827500I0J-147500D01*
G01*
X148780000Y-175172500D01*
G75*
G02*
X148632500Y-175320000I-147500J0D01*
G01*
X148337500Y-175320000D01*
G75*
G02*
X148190000Y-175172500I0J147500D01*
G01*
G37*
%TD.AperFunction*%
%TO.P,1005(0402),1*%
%TA.AperFunction,SMDPad,CuDef*%
G36*
G01*
X147220000Y-175172500D02*
X147220000Y-174827500D01*
G75*
G02*
X147367500Y-174680000I147500J0D01*
G01*
X147662500Y-174680000D01*
G75*
G02*
X147810000Y-174827500I0J-147500D01*
G01*
X147810000Y-175172500D01*
G75*
G02*
X147662500Y-175320000I-147500J0D01*
G01*
X147367500Y-175320000D01*
G75*
G02*
X147220000Y-175172500I0J147500D01*
G01*
G37*
%TD.AperFunction*%
%TD*%
%TO.P,0603(0201),1*%
%TO.N,N/C*%
%TA.AperFunction,SMDPad,CuDef*%
G36*
G01*
X147450000Y-173100000D02*
X147450000Y-172900000D01*
G75*
G02*
X147550000Y-172800000I100000J0D01*
G01*
X147810000Y-172800000D01*
G75*
G02*
X147910000Y-172900000I0J-100000D01*
G01*
X147910000Y-173100000D01*
G75*
G02*
X147810000Y-173200000I-100000J0D01*
G01*
X147550000Y-173200000D01*
G75*
G02*
X147450000Y-173100000I0J100000D01*
G01*
G37*
%TD.AperFunction*%
%TO.P,0603(0201),2*%
%TA.AperFunction,SMDPad,CuDef*%
G36*
G01*
X148090000Y-173100000D02*
X148090000Y-172900000D01*
G75*
G02*
X148190000Y-172800000I100000J0D01*
G01*
X148450000Y-172800000D01*
G75*
G02*
X148550000Y-172900000I0J-100000D01*
G01*
X148550000Y-173100000D01*
G75*
G02*
X148450000Y-173200000I-100000J0D01*
G01*
X148190000Y-173200000D01*
G75*
G02*
X148090000Y-173100000I0J100000D01*
G01*
G37*
%TD.AperFunction*%
%TD*%
%TO.P,0402(01005),2*%
%TO.N,N/C*%
%TA.AperFunction,SMDPad,CuDef*%
G36*
G01*
X148050000Y-171075000D02*
X148050000Y-170925000D01*
G75*
G02*
X148125000Y-170850000I75000J0D01*
G01*
X148375000Y-170850000D01*
G75*
G02*
X148450000Y-170925000I0J-75000D01*
G01*
X148450000Y-171075000D01*
G75*
G02*
X148375000Y-171150000I-75000J0D01*
G01*
X148125000Y-171150000D01*
G75*
G02*
X148050000Y-171075000I0J75000D01*
G01*
G37*
%TD.AperFunction*%
%TO.P,0402(01005),1*%
%TA.AperFunction,SMDPad,CuDef*%
G36*
G01*
X147550000Y-171075000D02*
X147550000Y-170925000D01*
G75*
G02*
X147625000Y-170850000I75000J0D01*
G01*
X147875000Y-170850000D01*
G75*
G02*
X147950000Y-170925000I0J-75000D01*
G01*
X147950000Y-171075000D01*
G75*
G02*
X147875000Y-171150000I-75000J0D01*
G01*
X147625000Y-171150000D01*
G75*
G02*
X147550000Y-171075000I0J75000D01*
G01*
G37*
%TD.AperFunction*%
%TD*%
%TO.P,1608(0603),2*%
%TO.N,N/C*%
%TA.AperFunction,SMDPad,CuDef*%
G36*
G01*
X148350000Y-177256250D02*
X148350000Y-176743750D01*
G75*
G02*
X148568750Y-176525000I218750J0D01*
G01*
X149006250Y-176525000D01*
G75*
G02*
X149225000Y-176743750I0J-218750D01*
G01*
X149225000Y-177256250D01*
G75*
G02*
X149006250Y-177475000I-218750J0D01*
G01*
X148568750Y-177475000D01*
G75*
G02*
X148350000Y-177256250I0J218750D01*
G01*
G37*
%TD.AperFunction*%
%TO.P,1608(0603),1*%
%TA.AperFunction,SMDPad,CuDef*%
G36*
G01*
X146775000Y-177256250D02*
X146775000Y-176743750D01*
G75*
G02*
X146993750Y-176525000I218750J0D01*
G01*
X147431250Y-176525000D01*
G75*
G02*
X147650000Y-176743750I0J-218750D01*
G01*
X147650000Y-177256250D01*
G75*
G02*
X147431250Y-177475000I-218750J0D01*
G01*
X146993750Y-177475000D01*
G75*
G02*
X146775000Y-177256250I0J218750D01*
G01*
G37*
%TD.AperFunction*%
%TD*%
%TO.P,2012(0805),2*%
%TO.N,N/C*%
%TA.AperFunction,SMDPad,CuDef*%
G36*
G01*
X160450000Y-171456250D02*
X160450000Y-170543750D01*
G75*
G02*
X160693750Y-170300000I243750J0D01*
G01*
X161181250Y-170300000D01*
G75*
G02*
X161425000Y-170543750I0J-243750D01*
G01*
X161425000Y-171456250D01*
G75*
G02*
X161181250Y-171700000I-243750J0D01*
G01*
X160693750Y-171700000D01*
G75*
G02*
X160450000Y-171456250I0J243750D01*
G01*
G37*
%TD.AperFunction*%
%TO.P,2012(0805),1*%
%TA.AperFunction,SMDPad,CuDef*%
G36*
G01*
X158575000Y-171456250D02*
X158575000Y-170543750D01*
G75*
G02*
X158818750Y-170300000I243750J0D01*
G01*
X159306250Y-170300000D01*
G75*
G02*
X159550000Y-170543750I0J-243750D01*
G01*
X159550000Y-171456250D01*
G75*
G02*
X159306250Y-171700000I-243750J0D01*
G01*
X158818750Y-171700000D01*
G75*
G02*
X158575000Y-171456250I0J243750D01*
G01*
G37*
%TD.AperFunction*%
%TD*%
%TO.P,3216(1206),1*%
%TO.N,N/C*%
%TA.AperFunction,SMDPad,CuDef*%
G36*
G01*
X157975000Y-174375000D02*
X157975000Y-173125000D01*
G75*
G02*
X158225000Y-172875000I250000J0D01*
G01*
X158975000Y-172875000D01*
G75*
G02*
X159225000Y-173125000I0J-250000D01*
G01*
X159225000Y-174375000D01*
G75*
G02*
X158975000Y-174625000I-250000J0D01*
G01*
X158225000Y-174625000D01*
G75*
G02*
X157975000Y-174375000I0J250000D01*
G01*
G37*
%TD.AperFunction*%
%TO.P,3216(1206),2*%
%TA.AperFunction,SMDPad,CuDef*%
G36*
G01*
X160775000Y-174375000D02*
X160775000Y-173125000D01*
G75*
G02*
X161025000Y-172875000I250000J0D01*
G01*
X161775000Y-172875000D01*
G75*
G02*
X162025000Y-173125000I0J-250000D01*
G01*
X162025000Y-174375000D01*
G75*
G02*
X161775000Y-174625000I-250000J0D01*
G01*
X161025000Y-174625000D01*
G75*
G02*
X160775000Y-174375000I0J250000D01*
G01*
G37*
%TD.AperFunction*%
%TD*%
%TO.P,3225(1210),1*%
%TO.N,N/C*%
%TA.AperFunction,SMDPad,CuDef*%
G36*
G01*
X157975000Y-178075000D02*
X157975000Y-175925000D01*
G75*
G02*
X158225000Y-175675000I250000J0D01*
G01*
X158975000Y-175675000D01*
G75*
G02*
X159225000Y-175925000I0J-250000D01*
G01*
X159225000Y-178075000D01*
G75*
G02*
X158975000Y-178325000I-250000J0D01*
G01*
X158225000Y-178325000D01*
G75*
G02*
X157975000Y-178075000I0J250000D01*
G01*
G37*
%TD.AperFunction*%
%TO.P,3225(1210),2*%
%TA.AperFunction,SMDPad,CuDef*%
G36*
G01*
X160775000Y-178075000D02*
X160775000Y-175925000D01*
G75*
G02*
X161025000Y-175675000I250000J0D01*
G01*
X161775000Y-175675000D01*
G75*
G02*
X162025000Y-175925000I0J-250000D01*
G01*
X162025000Y-178075000D01*
G75*
G02*
X161775000Y-178325000I-250000J0D01*
G01*
X161025000Y-178325000D01*
G75*
G02*
X160775000Y-178075000I0J250000D01*
G01*
G37*
%TD.AperFunction*%
%TD*%
D10*
%TO.P,REF\u002A\u002A,1*%
%TO.N,N/C*%
X195000000Y-170000000D03*
D11*
X196650000Y-170000000D03*
X196166726Y-171166726D03*
X195000000Y-171650000D03*
X193833274Y-171166726D03*
X193350000Y-170000000D03*
X193833274Y-168833274D03*
X195000000Y-168350000D03*
X196166726Y-168833274D03*
%TD*%
%TO.P,1005(0402),2*%
%TO.N,N/C*%
%TA.AperFunction,SMDPad,CuDef*%
G36*
G01*
X148190000Y-155172500D02*
X148190000Y-154827500D01*
G75*
G02*
X148337500Y-154680000I147500J0D01*
G01*
X148632500Y-154680000D01*
G75*
G02*
X148780000Y-154827500I0J-147500D01*
G01*
X148780000Y-155172500D01*
G75*
G02*
X148632500Y-155320000I-147500J0D01*
G01*
X148337500Y-155320000D01*
G75*
G02*
X148190000Y-155172500I0J147500D01*
G01*
G37*
%TD.AperFunction*%
%TO.P,1005(0402),1*%
%TA.AperFunction,SMDPad,CuDef*%
G36*
G01*
X147220000Y-155172500D02*
X147220000Y-154827500D01*
G75*
G02*
X147367500Y-154680000I147500J0D01*
G01*
X147662500Y-154680000D01*
G75*
G02*
X147810000Y-154827500I0J-147500D01*
G01*
X147810000Y-155172500D01*
G75*
G02*
X147662500Y-155320000I-147500J0D01*
G01*
X147367500Y-155320000D01*
G75*
G02*
X147220000Y-155172500I0J147500D01*
G01*
G37*
%TD.AperFunction*%
%TD*%
%TO.P,0603(0201),1*%
%TO.N,N/C*%
%TA.AperFunction,SMDPad,CuDef*%
G36*
G01*
X147450000Y-153100000D02*
X147450000Y-152900000D01*
G75*
G02*
X147550000Y-152800000I100000J0D01*
G01*
X147810000Y-152800000D01*
G75*
G02*
X147910000Y-152900000I0J-100000D01*
G01*
X147910000Y-153100000D01*
G75*
G02*
X147810000Y-153200000I-100000J0D01*
G01*
X147550000Y-153200000D01*
G75*
G02*
X147450000Y-153100000I0J100000D01*
G01*
G37*
%TD.AperFunction*%
%TO.P,0603(0201),2*%
%TA.AperFunction,SMDPad,CuDef*%
G36*
G01*
X148090000Y-153100000D02*
X148090000Y-152900000D01*
G75*
G02*
X148190000Y-152800000I100000J0D01*
G01*
X148450000Y-152800000D01*
G75*
G02*
X148550000Y-152900000I0J-100000D01*
G01*
X148550000Y-153100000D01*
G75*
G02*
X148450000Y-153200000I-100000J0D01*
G01*
X148190000Y-153200000D01*
G75*
G02*
X148090000Y-153100000I0J100000D01*
G01*
G37*
%TD.AperFunction*%
%TD*%
%TO.P,0402(01005),2*%
%TO.N,N/C*%
%TA.AperFunction,SMDPad,CuDef*%
G36*
G01*
X148050000Y-151075000D02*
X148050000Y-150925000D01*
G75*
G02*
X148125000Y-150850000I75000J0D01*
G01*
X148375000Y-150850000D01*
G75*
G02*
X148450000Y-150925000I0J-75000D01*
G01*
X148450000Y-151075000D01*
G75*
G02*
X148375000Y-151150000I-75000J0D01*
G01*
X148125000Y-151150000D01*
G75*
G02*
X148050000Y-151075000I0J75000D01*
G01*
G37*
%TD.AperFunction*%
%TO.P,0402(01005),1*%
%TA.AperFunction,SMDPad,CuDef*%
G36*
G01*
X147550000Y-151075000D02*
X147550000Y-150925000D01*
G75*
G02*
X147625000Y-150850000I75000J0D01*
G01*
X147875000Y-150850000D01*
G75*
G02*
X147950000Y-150925000I0J-75000D01*
G01*
X147950000Y-151075000D01*
G75*
G02*
X147875000Y-151150000I-75000J0D01*
G01*
X147625000Y-151150000D01*
G75*
G02*
X147550000Y-151075000I0J75000D01*
G01*
G37*
%TD.AperFunction*%
%TD*%
%TO.P,1608(0603),2*%
%TO.N,N/C*%
%TA.AperFunction,SMDPad,CuDef*%
G36*
G01*
X148350000Y-157256250D02*
X148350000Y-156743750D01*
G75*
G02*
X148568750Y-156525000I218750J0D01*
G01*
X149006250Y-156525000D01*
G75*
G02*
X149225000Y-156743750I0J-218750D01*
G01*
X149225000Y-157256250D01*
G75*
G02*
X149006250Y-157475000I-218750J0D01*
G01*
X148568750Y-157475000D01*
G75*
G02*
X148350000Y-157256250I0J218750D01*
G01*
G37*
%TD.AperFunction*%
%TO.P,1608(0603),1*%
%TA.AperFunction,SMDPad,CuDef*%
G36*
G01*
X146775000Y-157256250D02*
X146775000Y-156743750D01*
G75*
G02*
X146993750Y-156525000I218750J0D01*
G01*
X147431250Y-156525000D01*
G75*
G02*
X147650000Y-156743750I0J-218750D01*
G01*
X147650000Y-157256250D01*
G75*
G02*
X147431250Y-157475000I-218750J0D01*
G01*
X146993750Y-157475000D01*
G75*
G02*
X146775000Y-157256250I0J218750D01*
G01*
G37*
%TD.AperFunction*%
%TD*%
%TO.P,2012(0805),2*%
%TO.N,N/C*%
%TA.AperFunction,SMDPad,CuDef*%
G36*
G01*
X160450000Y-151456250D02*
X160450000Y-150543750D01*
G75*
G02*
X160693750Y-150300000I243750J0D01*
G01*
X161181250Y-150300000D01*
G75*
G02*
X161425000Y-150543750I0J-243750D01*
G01*
X161425000Y-151456250D01*
G75*
G02*
X161181250Y-151700000I-243750J0D01*
G01*
X160693750Y-151700000D01*
G75*
G02*
X160450000Y-151456250I0J243750D01*
G01*
G37*
%TD.AperFunction*%
%TO.P,2012(0805),1*%
%TA.AperFunction,SMDPad,CuDef*%
G36*
G01*
X158575000Y-151456250D02*
X158575000Y-150543750D01*
G75*
G02*
X158818750Y-150300000I243750J0D01*
G01*
X159306250Y-150300000D01*
G75*
G02*
X159550000Y-150543750I0J-243750D01*
G01*
X159550000Y-151456250D01*
G75*
G02*
X159306250Y-151700000I-243750J0D01*
G01*
X158818750Y-151700000D01*
G75*
G02*
X158575000Y-151456250I0J243750D01*
G01*
G37*
%TD.AperFunction*%
%TD*%
%TO.P,3216(1206),1*%
%TO.N,N/C*%
%TA.AperFunction,SMDPad,CuDef*%
G36*
G01*
X157975000Y-154375000D02*
X157975000Y-153125000D01*
G75*
G02*
X158225000Y-152875000I250000J0D01*
G01*
X158975000Y-152875000D01*
G75*
G02*
X159225000Y-153125000I0J-250000D01*
G01*
X159225000Y-154375000D01*
G75*
G02*
X158975000Y-154625000I-250000J0D01*
G01*
X158225000Y-154625000D01*
G75*
G02*
X157975000Y-154375000I0J250000D01*
G01*
G37*
%TD.AperFunction*%
%TO.P,3216(1206),2*%
%TA.AperFunction,SMDPad,CuDef*%
G36*
G01*
X160775000Y-154375000D02*
X160775000Y-153125000D01*
G75*
G02*
X161025000Y-152875000I250000J0D01*
G01*
X161775000Y-152875000D01*
G75*
G02*
X162025000Y-153125000I0J-250000D01*
G01*
X162025000Y-154375000D01*
G75*
G02*
X161775000Y-154625000I-250000J0D01*
G01*
X161025000Y-154625000D01*
G75*
G02*
X160775000Y-154375000I0J250000D01*
G01*
G37*
%TD.AperFunction*%
%TD*%
%TO.P,3225(1210),1*%
%TO.N,N/C*%
%TA.AperFunction,SMDPad,CuDef*%
G36*
G01*
X157975000Y-158075000D02*
X157975000Y-155925000D01*
G75*
G02*
X158225000Y-155675000I250000J0D01*
G01*
X158975000Y-155675000D01*
G75*
G02*
X159225000Y-155925000I0J-250000D01*
G01*
X159225000Y-158075000D01*
G75*
G02*
X158975000Y-158325000I-250000J0D01*
G01*
X158225000Y-158325000D01*
G75*
G02*
X157975000Y-158075000I0J250000D01*
G01*
G37*
%TD.AperFunction*%
%TO.P,3225(1210),2*%
%TA.AperFunction,SMDPad,CuDef*%
G36*
G01*
X160775000Y-158075000D02*
X160775000Y-155925000D01*
G75*
G02*
X161025000Y-155675000I250000J0D01*
G01*
X161775000Y-155675000D01*
G75*
G02*
X162025000Y-155925000I0J-250000D01*
G01*
X162025000Y-158075000D01*
G75*
G02*
X161775000Y-158325000I-250000J0D01*
G01*
X161025000Y-158325000D01*
G75*
G02*
X160775000Y-158075000I0J250000D01*
G01*
G37*
%TD.AperFunction*%
%TD*%
D10*
%TO.P,REF\u002A\u002A,1*%
%TO.N,N/C*%
X195000000Y-150000000D03*
D11*
X196650000Y-150000000D03*
X196166726Y-151166726D03*
X195000000Y-151650000D03*
X193833274Y-151166726D03*
X193350000Y-150000000D03*
X193833274Y-148833274D03*
X195000000Y-148350000D03*
X196166726Y-148833274D03*
%TD*%
%TO.P,1005(0402),2*%
%TO.N,N/C*%
%TA.AperFunction,SMDPad,CuDef*%
G36*
G01*
X148190000Y-135172500D02*
X148190000Y-134827500D01*
G75*
G02*
X148337500Y-134680000I147500J0D01*
G01*
X148632500Y-134680000D01*
G75*
G02*
X148780000Y-134827500I0J-147500D01*
G01*
X148780000Y-135172500D01*
G75*
G02*
X148632500Y-135320000I-147500J0D01*
G01*
X148337500Y-135320000D01*
G75*
G02*
X148190000Y-135172500I0J147500D01*
G01*
G37*
%TD.AperFunction*%
%TO.P,1005(0402),1*%
%TA.AperFunction,SMDPad,CuDef*%
G36*
G01*
X147220000Y-135172500D02*
X147220000Y-134827500D01*
G75*
G02*
X147367500Y-134680000I147500J0D01*
G01*
X147662500Y-134680000D01*
G75*
G02*
X147810000Y-134827500I0J-147500D01*
G01*
X147810000Y-135172500D01*
G75*
G02*
X147662500Y-135320000I-147500J0D01*
G01*
X147367500Y-135320000D01*
G75*
G02*
X147220000Y-135172500I0J147500D01*
G01*
G37*
%TD.AperFunction*%
%TD*%
%TO.P,0603(0201),1*%
%TO.N,N/C*%
%TA.AperFunction,SMDPad,CuDef*%
G36*
G01*
X147450000Y-133100000D02*
X147450000Y-132900000D01*
G75*
G02*
X147550000Y-132800000I100000J0D01*
G01*
X147810000Y-132800000D01*
G75*
G02*
X147910000Y-132900000I0J-100000D01*
G01*
X147910000Y-133100000D01*
G75*
G02*
X147810000Y-133200000I-100000J0D01*
G01*
X147550000Y-133200000D01*
G75*
G02*
X147450000Y-133100000I0J100000D01*
G01*
G37*
%TD.AperFunction*%
%TO.P,0603(0201),2*%
%TA.AperFunction,SMDPad,CuDef*%
G36*
G01*
X148090000Y-133100000D02*
X148090000Y-132900000D01*
G75*
G02*
X148190000Y-132800000I100000J0D01*
G01*
X148450000Y-132800000D01*
G75*
G02*
X148550000Y-132900000I0J-100000D01*
G01*
X148550000Y-133100000D01*
G75*
G02*
X148450000Y-133200000I-100000J0D01*
G01*
X148190000Y-133200000D01*
G75*
G02*
X148090000Y-133100000I0J100000D01*
G01*
G37*
%TD.AperFunction*%
%TD*%
%TO.P,0402(01005),2*%
%TO.N,N/C*%
%TA.AperFunction,SMDPad,CuDef*%
G36*
G01*
X148050000Y-131075000D02*
X148050000Y-130925000D01*
G75*
G02*
X148125000Y-130850000I75000J0D01*
G01*
X148375000Y-130850000D01*
G75*
G02*
X148450000Y-130925000I0J-75000D01*
G01*
X148450000Y-131075000D01*
G75*
G02*
X148375000Y-131150000I-75000J0D01*
G01*
X148125000Y-131150000D01*
G75*
G02*
X148050000Y-131075000I0J75000D01*
G01*
G37*
%TD.AperFunction*%
%TO.P,0402(01005),1*%
%TA.AperFunction,SMDPad,CuDef*%
G36*
G01*
X147550000Y-131075000D02*
X147550000Y-130925000D01*
G75*
G02*
X147625000Y-130850000I75000J0D01*
G01*
X147875000Y-130850000D01*
G75*
G02*
X147950000Y-130925000I0J-75000D01*
G01*
X147950000Y-131075000D01*
G75*
G02*
X147875000Y-131150000I-75000J0D01*
G01*
X147625000Y-131150000D01*
G75*
G02*
X147550000Y-131075000I0J75000D01*
G01*
G37*
%TD.AperFunction*%
%TD*%
%TO.P,1608(0603),2*%
%TO.N,N/C*%
%TA.AperFunction,SMDPad,CuDef*%
G36*
G01*
X148350000Y-137256250D02*
X148350000Y-136743750D01*
G75*
G02*
X148568750Y-136525000I218750J0D01*
G01*
X149006250Y-136525000D01*
G75*
G02*
X149225000Y-136743750I0J-218750D01*
G01*
X149225000Y-137256250D01*
G75*
G02*
X149006250Y-137475000I-218750J0D01*
G01*
X148568750Y-137475000D01*
G75*
G02*
X148350000Y-137256250I0J218750D01*
G01*
G37*
%TD.AperFunction*%
%TO.P,1608(0603),1*%
%TA.AperFunction,SMDPad,CuDef*%
G36*
G01*
X146775000Y-137256250D02*
X146775000Y-136743750D01*
G75*
G02*
X146993750Y-136525000I218750J0D01*
G01*
X147431250Y-136525000D01*
G75*
G02*
X147650000Y-136743750I0J-218750D01*
G01*
X147650000Y-137256250D01*
G75*
G02*
X147431250Y-137475000I-218750J0D01*
G01*
X146993750Y-137475000D01*
G75*
G02*
X146775000Y-137256250I0J218750D01*
G01*
G37*
%TD.AperFunction*%
%TD*%
%TO.P,2012(0805),2*%
%TO.N,N/C*%
%TA.AperFunction,SMDPad,CuDef*%
G36*
G01*
X160450000Y-131456250D02*
X160450000Y-130543750D01*
G75*
G02*
X160693750Y-130300000I243750J0D01*
G01*
X161181250Y-130300000D01*
G75*
G02*
X161425000Y-130543750I0J-243750D01*
G01*
X161425000Y-131456250D01*
G75*
G02*
X161181250Y-131700000I-243750J0D01*
G01*
X160693750Y-131700000D01*
G75*
G02*
X160450000Y-131456250I0J243750D01*
G01*
G37*
%TD.AperFunction*%
%TO.P,2012(0805),1*%
%TA.AperFunction,SMDPad,CuDef*%
G36*
G01*
X158575000Y-131456250D02*
X158575000Y-130543750D01*
G75*
G02*
X158818750Y-130300000I243750J0D01*
G01*
X159306250Y-130300000D01*
G75*
G02*
X159550000Y-130543750I0J-243750D01*
G01*
X159550000Y-131456250D01*
G75*
G02*
X159306250Y-131700000I-243750J0D01*
G01*
X158818750Y-131700000D01*
G75*
G02*
X158575000Y-131456250I0J243750D01*
G01*
G37*
%TD.AperFunction*%
%TD*%
%TO.P,3216(1206),1*%
%TO.N,N/C*%
%TA.AperFunction,SMDPad,CuDef*%
G36*
G01*
X157975000Y-134375000D02*
X157975000Y-133125000D01*
G75*
G02*
X158225000Y-132875000I250000J0D01*
G01*
X158975000Y-132875000D01*
G75*
G02*
X159225000Y-133125000I0J-250000D01*
G01*
X159225000Y-134375000D01*
G75*
G02*
X158975000Y-134625000I-250000J0D01*
G01*
X158225000Y-134625000D01*
G75*
G02*
X157975000Y-134375000I0J250000D01*
G01*
G37*
%TD.AperFunction*%
%TO.P,3216(1206),2*%
%TA.AperFunction,SMDPad,CuDef*%
G36*
G01*
X160775000Y-134375000D02*
X160775000Y-133125000D01*
G75*
G02*
X161025000Y-132875000I250000J0D01*
G01*
X161775000Y-132875000D01*
G75*
G02*
X162025000Y-133125000I0J-250000D01*
G01*
X162025000Y-134375000D01*
G75*
G02*
X161775000Y-134625000I-250000J0D01*
G01*
X161025000Y-134625000D01*
G75*
G02*
X160775000Y-134375000I0J250000D01*
G01*
G37*
%TD.AperFunction*%
%TD*%
%TO.P,3225(1210),1*%
%TO.N,N/C*%
%TA.AperFunction,SMDPad,CuDef*%
G36*
G01*
X157975000Y-138075000D02*
X157975000Y-135925000D01*
G75*
G02*
X158225000Y-135675000I250000J0D01*
G01*
X158975000Y-135675000D01*
G75*
G02*
X159225000Y-135925000I0J-250000D01*
G01*
X159225000Y-138075000D01*
G75*
G02*
X158975000Y-138325000I-250000J0D01*
G01*
X158225000Y-138325000D01*
G75*
G02*
X157975000Y-138075000I0J250000D01*
G01*
G37*
%TD.AperFunction*%
%TO.P,3225(1210),2*%
%TA.AperFunction,SMDPad,CuDef*%
G36*
G01*
X160775000Y-138075000D02*
X160775000Y-135925000D01*
G75*
G02*
X161025000Y-135675000I250000J0D01*
G01*
X161775000Y-135675000D01*
G75*
G02*
X162025000Y-135925000I0J-250000D01*
G01*
X162025000Y-138075000D01*
G75*
G02*
X161775000Y-138325000I-250000J0D01*
G01*
X161025000Y-138325000D01*
G75*
G02*
X160775000Y-138075000I0J250000D01*
G01*
G37*
%TD.AperFunction*%
%TD*%
D10*
%TO.P,REF\u002A\u002A,1*%
%TO.N,N/C*%
X195000000Y-130000000D03*
D11*
X196650000Y-130000000D03*
X196166726Y-131166726D03*
X195000000Y-131650000D03*
X193833274Y-131166726D03*
X193350000Y-130000000D03*
X193833274Y-128833274D03*
X195000000Y-128350000D03*
X196166726Y-128833274D03*
%TD*%
%TO.P,REF\u002A\u002A,1*%
%TO.N,N/C*%
X196166726Y-108833274D03*
X195000000Y-108350000D03*
X193833274Y-108833274D03*
X193350000Y-110000000D03*
X193833274Y-111166726D03*
X195000000Y-111650000D03*
X196166726Y-111166726D03*
X196650000Y-110000000D03*
D10*
X195000000Y-110000000D03*
%TD*%
%TO.P,3225(1210),2*%
%TO.N,N/C*%
%TA.AperFunction,SMDPad,CuDef*%
G36*
G01*
X160775000Y-118075000D02*
X160775000Y-115925000D01*
G75*
G02*
X161025000Y-115675000I250000J0D01*
G01*
X161775000Y-115675000D01*
G75*
G02*
X162025000Y-115925000I0J-250000D01*
G01*
X162025000Y-118075000D01*
G75*
G02*
X161775000Y-118325000I-250000J0D01*
G01*
X161025000Y-118325000D01*
G75*
G02*
X160775000Y-118075000I0J250000D01*
G01*
G37*
%TD.AperFunction*%
%TO.P,3225(1210),1*%
%TA.AperFunction,SMDPad,CuDef*%
G36*
G01*
X157975000Y-118075000D02*
X157975000Y-115925000D01*
G75*
G02*
X158225000Y-115675000I250000J0D01*
G01*
X158975000Y-115675000D01*
G75*
G02*
X159225000Y-115925000I0J-250000D01*
G01*
X159225000Y-118075000D01*
G75*
G02*
X158975000Y-118325000I-250000J0D01*
G01*
X158225000Y-118325000D01*
G75*
G02*
X157975000Y-118075000I0J250000D01*
G01*
G37*
%TD.AperFunction*%
%TD*%
%TO.P,3216(1206),2*%
%TO.N,N/C*%
%TA.AperFunction,SMDPad,CuDef*%
G36*
G01*
X160775000Y-114375000D02*
X160775000Y-113125000D01*
G75*
G02*
X161025000Y-112875000I250000J0D01*
G01*
X161775000Y-112875000D01*
G75*
G02*
X162025000Y-113125000I0J-250000D01*
G01*
X162025000Y-114375000D01*
G75*
G02*
X161775000Y-114625000I-250000J0D01*
G01*
X161025000Y-114625000D01*
G75*
G02*
X160775000Y-114375000I0J250000D01*
G01*
G37*
%TD.AperFunction*%
%TO.P,3216(1206),1*%
%TA.AperFunction,SMDPad,CuDef*%
G36*
G01*
X157975000Y-114375000D02*
X157975000Y-113125000D01*
G75*
G02*
X158225000Y-112875000I250000J0D01*
G01*
X158975000Y-112875000D01*
G75*
G02*
X159225000Y-113125000I0J-250000D01*
G01*
X159225000Y-114375000D01*
G75*
G02*
X158975000Y-114625000I-250000J0D01*
G01*
X158225000Y-114625000D01*
G75*
G02*
X157975000Y-114375000I0J250000D01*
G01*
G37*
%TD.AperFunction*%
%TD*%
%TO.P,2012(0805),1*%
%TO.N,N/C*%
%TA.AperFunction,SMDPad,CuDef*%
G36*
G01*
X158575000Y-111456250D02*
X158575000Y-110543750D01*
G75*
G02*
X158818750Y-110300000I243750J0D01*
G01*
X159306250Y-110300000D01*
G75*
G02*
X159550000Y-110543750I0J-243750D01*
G01*
X159550000Y-111456250D01*
G75*
G02*
X159306250Y-111700000I-243750J0D01*
G01*
X158818750Y-111700000D01*
G75*
G02*
X158575000Y-111456250I0J243750D01*
G01*
G37*
%TD.AperFunction*%
%TO.P,2012(0805),2*%
%TA.AperFunction,SMDPad,CuDef*%
G36*
G01*
X160450000Y-111456250D02*
X160450000Y-110543750D01*
G75*
G02*
X160693750Y-110300000I243750J0D01*
G01*
X161181250Y-110300000D01*
G75*
G02*
X161425000Y-110543750I0J-243750D01*
G01*
X161425000Y-111456250D01*
G75*
G02*
X161181250Y-111700000I-243750J0D01*
G01*
X160693750Y-111700000D01*
G75*
G02*
X160450000Y-111456250I0J243750D01*
G01*
G37*
%TD.AperFunction*%
%TD*%
%TO.P,1608(0603),1*%
%TO.N,N/C*%
%TA.AperFunction,SMDPad,CuDef*%
G36*
G01*
X146775000Y-117256250D02*
X146775000Y-116743750D01*
G75*
G02*
X146993750Y-116525000I218750J0D01*
G01*
X147431250Y-116525000D01*
G75*
G02*
X147650000Y-116743750I0J-218750D01*
G01*
X147650000Y-117256250D01*
G75*
G02*
X147431250Y-117475000I-218750J0D01*
G01*
X146993750Y-117475000D01*
G75*
G02*
X146775000Y-117256250I0J218750D01*
G01*
G37*
%TD.AperFunction*%
%TO.P,1608(0603),2*%
%TA.AperFunction,SMDPad,CuDef*%
G36*
G01*
X148350000Y-117256250D02*
X148350000Y-116743750D01*
G75*
G02*
X148568750Y-116525000I218750J0D01*
G01*
X149006250Y-116525000D01*
G75*
G02*
X149225000Y-116743750I0J-218750D01*
G01*
X149225000Y-117256250D01*
G75*
G02*
X149006250Y-117475000I-218750J0D01*
G01*
X148568750Y-117475000D01*
G75*
G02*
X148350000Y-117256250I0J218750D01*
G01*
G37*
%TD.AperFunction*%
%TD*%
%TO.P,0402(01005),1*%
%TO.N,N/C*%
%TA.AperFunction,SMDPad,CuDef*%
G36*
G01*
X147550000Y-111075000D02*
X147550000Y-110925000D01*
G75*
G02*
X147625000Y-110850000I75000J0D01*
G01*
X147875000Y-110850000D01*
G75*
G02*
X147950000Y-110925000I0J-75000D01*
G01*
X147950000Y-111075000D01*
G75*
G02*
X147875000Y-111150000I-75000J0D01*
G01*
X147625000Y-111150000D01*
G75*
G02*
X147550000Y-111075000I0J75000D01*
G01*
G37*
%TD.AperFunction*%
%TO.P,0402(01005),2*%
%TA.AperFunction,SMDPad,CuDef*%
G36*
G01*
X148050000Y-111075000D02*
X148050000Y-110925000D01*
G75*
G02*
X148125000Y-110850000I75000J0D01*
G01*
X148375000Y-110850000D01*
G75*
G02*
X148450000Y-110925000I0J-75000D01*
G01*
X148450000Y-111075000D01*
G75*
G02*
X148375000Y-111150000I-75000J0D01*
G01*
X148125000Y-111150000D01*
G75*
G02*
X148050000Y-111075000I0J75000D01*
G01*
G37*
%TD.AperFunction*%
%TD*%
%TO.P,0603(0201),2*%
%TO.N,N/C*%
%TA.AperFunction,SMDPad,CuDef*%
G36*
G01*
X148090000Y-113100000D02*
X148090000Y-112900000D01*
G75*
G02*
X148190000Y-112800000I100000J0D01*
G01*
X148450000Y-112800000D01*
G75*
G02*
X148550000Y-112900000I0J-100000D01*
G01*
X148550000Y-113100000D01*
G75*
G02*
X148450000Y-113200000I-100000J0D01*
G01*
X148190000Y-113200000D01*
G75*
G02*
X148090000Y-113100000I0J100000D01*
G01*
G37*
%TD.AperFunction*%
%TO.P,0603(0201),1*%
%TA.AperFunction,SMDPad,CuDef*%
G36*
G01*
X147450000Y-113100000D02*
X147450000Y-112900000D01*
G75*
G02*
X147550000Y-112800000I100000J0D01*
G01*
X147810000Y-112800000D01*
G75*
G02*
X147910000Y-112900000I0J-100000D01*
G01*
X147910000Y-113100000D01*
G75*
G02*
X147810000Y-113200000I-100000J0D01*
G01*
X147550000Y-113200000D01*
G75*
G02*
X147450000Y-113100000I0J100000D01*
G01*
G37*
%TD.AperFunction*%
%TD*%
%TO.P,1005(0402),1*%
%TO.N,N/C*%
%TA.AperFunction,SMDPad,CuDef*%
G36*
G01*
X147220000Y-115172500D02*
X147220000Y-114827500D01*
G75*
G02*
X147367500Y-114680000I147500J0D01*
G01*
X147662500Y-114680000D01*
G75*
G02*
X147810000Y-114827500I0J-147500D01*
G01*
X147810000Y-115172500D01*
G75*
G02*
X147662500Y-115320000I-147500J0D01*
G01*
X147367500Y-115320000D01*
G75*
G02*
X147220000Y-115172500I0J147500D01*
G01*
G37*
%TD.AperFunction*%
%TO.P,1005(0402),2*%
%TA.AperFunction,SMDPad,CuDef*%
G36*
G01*
X148190000Y-115172500D02*
X148190000Y-114827500D01*
G75*
G02*
X148337500Y-114680000I147500J0D01*
G01*
X148632500Y-114680000D01*
G75*
G02*
X148780000Y-114827500I0J-147500D01*
G01*
X148780000Y-115172500D01*
G75*
G02*
X148632500Y-115320000I-147500J0D01*
G01*
X148337500Y-115320000D01*
G75*
G02*
X148190000Y-115172500I0J147500D01*
G01*
G37*
%TD.AperFunction*%
%TD*%
D12*
%TO.N,*%
X103000000Y-111000000D02*
X103000000Y-115000000D01*
D13*
X105000000Y-111000000D02*
X105000000Y-115000000D01*
D14*
X107000000Y-111000000D02*
X107000000Y-115000000D01*
D15*
X109000000Y-111000000D02*
X109000000Y-115000000D01*
D16*
X111000000Y-111000000D02*
X111000000Y-115000000D01*
D17*
X113000000Y-111000000D02*
X113000000Y-115000000D01*
D18*
X117000000Y-111000000D02*
X117000000Y-115000000D01*
D19*
X119000000Y-111000000D02*
X119000000Y-115000000D01*
D20*
X115000000Y-111000000D02*
X115000000Y-115000000D01*
D19*
X119000000Y-131000000D02*
X119000000Y-135000000D01*
D17*
X113000000Y-131000000D02*
X113000000Y-135000000D01*
D16*
X111000000Y-131000000D02*
X111000000Y-135000000D01*
D15*
X109000000Y-131000000D02*
X109000000Y-135000000D01*
D14*
X107000000Y-131000000D02*
X107000000Y-135000000D01*
D13*
X105000000Y-131000000D02*
X105000000Y-135000000D01*
D12*
X103000000Y-131000000D02*
X103000000Y-135000000D01*
D20*
X115000000Y-131000000D02*
X115000000Y-135000000D01*
D18*
X117000000Y-131000000D02*
X117000000Y-135000000D01*
D19*
X119000000Y-151000000D02*
X119000000Y-155000000D01*
D17*
X113000000Y-151000000D02*
X113000000Y-155000000D01*
D16*
X111000000Y-151000000D02*
X111000000Y-155000000D01*
D15*
X109000000Y-151000000D02*
X109000000Y-155000000D01*
D14*
X107000000Y-151000000D02*
X107000000Y-155000000D01*
D13*
X105000000Y-151000000D02*
X105000000Y-155000000D01*
D12*
X103000000Y-151000000D02*
X103000000Y-155000000D01*
D20*
X115000000Y-151000000D02*
X115000000Y-155000000D01*
D18*
X117000000Y-151000000D02*
X117000000Y-155000000D01*
D19*
X119000000Y-171000000D02*
X119000000Y-175000000D01*
D17*
X113000000Y-171000000D02*
X113000000Y-175000000D01*
D16*
X111000000Y-171000000D02*
X111000000Y-175000000D01*
D15*
X109000000Y-171000000D02*
X109000000Y-175000000D01*
D14*
X107000000Y-171000000D02*
X107000000Y-175000000D01*
D13*
X105000000Y-171000000D02*
X105000000Y-175000000D01*
D12*
X103000000Y-171000000D02*
X103000000Y-175000000D01*
D20*
X115000000Y-171000000D02*
X115000000Y-175000000D01*
D18*
X117000000Y-171000000D02*
X117000000Y-175000000D01*
D19*
X119000000Y-191000000D02*
X119000000Y-195000000D01*
D17*
X113000000Y-191000000D02*
X113000000Y-195000000D01*
D16*
X111000000Y-191000000D02*
X111000000Y-195000000D01*
D15*
X109000000Y-191000000D02*
X109000000Y-195000000D01*
D14*
X107000000Y-191000000D02*
X107000000Y-195000000D01*
D13*
X105000000Y-191000000D02*
X105000000Y-195000000D01*
D12*
X103000000Y-191000000D02*
X103000000Y-195000000D01*
D20*
X115000000Y-191000000D02*
X115000000Y-195000000D01*
D18*
X117000000Y-191000000D02*
X117000000Y-195000000D01*
%TD*%
M02*
